<?xml version="1.0" standalone="no"?>
<!DOCTYPE svg PUBLIC "-//W3C//DTD SVG 20010904//EN"
 "http://www.w3.org/TR/2001/REC-SVG-20010904/DTD/svg10.dtd">
<svg version="1.0" xmlns="http://www.w3.org/2000/svg"
 width="512.000000pt" height="512.000000pt" viewBox="0 0 512.000000 512.000000"
 preserveAspectRatio="xMidYMid meet">
<metadata>
Created by potrace 1.14, written by Peter Selinger 2001-2017
</metadata>
<g transform="translate(0.000000,512.000000) scale(0.100000,-0.100000)"
fill="#000000" stroke="none">
<path d="M3347 4943 c3 -8 -3 -13 -15 -13 -11 0 -23 -6 -25 -12 -4 -10 -6 -10
-6 1 -1 8 -9 5 -22 -10 -11 -13 -17 -18 -13 -10 5 9 3 12 -4 7 -7 -4 -12 -14
-12 -23 0 -13 -3 -13 -15 -3 -15 12 -21 3 -16 -24 1 -5 -4 -4 -12 3 -12 9 -16
7 -20 -10 -3 -12 -10 -18 -16 -14 -6 3 -11 1 -11 -5 0 -6 -4 -9 -9 -6 -4 3
-21 -10 -36 -29 -16 -18 -33 -32 -37 -29 -4 3 -8 -2 -8 -10 0 -9 -9 -16 -21
-16 -13 0 -18 -4 -13 -12 5 -8 2 -9 -9 -5 -9 3 -16 3 -16 -1 3 -18 -2 -35 -8
-29 -3 4 -11 -3 -18 -16 -6 -12 -18 -21 -27 -21 -8 1 -15 -6 -14 -15 0 -9 -4
-15 -11 -14 -7 2 -10 -4 -7 -12 4 -10 0 -13 -16 -10 -18 3 -20 2 -10 -10 10
-11 10 -15 1 -15 -7 0 -10 -4 -7 -8 3 -5 -6 -16 -20 -26 -13 -11 -24 -27 -24
-37 0 -22 -10 -24 -29 -6 -8 6 -6 0 4 -16 17 -26 17 -27 0 -20 -14 5 -17 3
-12 -10 4 -11 -3 -23 -20 -37 -15 -11 -20 -20 -12 -20 10 -1 8 -4 -4 -11 -9
-6 -15 -14 -12 -18 2 -5 -2 -14 -10 -21 -8 -7 -12 -16 -9 -21 3 -5 0 -8 -7 -7
-7 2 -13 -6 -14 -17 0 -14 -6 -19 -19 -17 -17 3 -18 2 -7 -12 8 -9 12 -18 10
-19 -2 -1 -11 -8 -19 -14 -14 -10 -16 -6 -14 35 0 26 5 55 9 65 4 9 5 30 3 46
-3 21 -1 28 9 24 9 -4 11 0 6 13 -3 11 -11 22 -16 25 -5 3 -1 9 8 12 11 5 14
3 9 -6 -4 -6 -3 -9 1 -4 11 9 13 57 3 51 -4 -3 -8 0 -8 6 0 6 7 13 15 16 8 4
15 10 15 16 0 5 -5 6 -12 2 -7 -5 -8 -3 -2 7 9 15 11 20 13 45 0 8 5 13 9 10
4 -2 14 0 22 6 12 8 12 9 -2 4 -10 -3 -20 -1 -23 4 -4 6 0 10 8 10 8 0 18 7
21 16 5 12 2 15 -9 10 -9 -3 -13 -2 -10 4 3 6 12 10 20 10 7 0 16 7 19 16 5
13 3 14 -7 6 -10 -8 -13 -6 -13 9 0 11 5 18 11 15 7 -2 12 2 12 10 0 7 -3 11
-7 9 -4 -2 -7 2 -7 10 0 11 5 12 21 3 18 -10 19 -9 9 3 -14 18 -11 51 6 57 9
3 9 8 -1 20 -8 9 -8 13 -2 9 7 -4 14 3 18 18 4 14 10 24 15 21 4 -3 8 2 8 10
0 9 -6 13 -14 10 -8 -3 -11 -2 -8 3 3 5 0 13 -6 17 -7 4 -10 3 -6 -2 3 -5 -2
-18 -10 -29 -15 -19 -15 -19 -9 -1 5 16 4 17 -9 6 -8 -7 -15 -20 -15 -29 0
-14 -2 -14 -10 -1 -8 12 -10 10 -10 -9 0 -13 -3 -22 -6 -19 -3 4 -14 -2 -25
-13 -11 -11 -25 -17 -32 -12 -7 4 -7 0 2 -10 8 -10 9 -17 3 -17 -6 0 -24 -12
-39 -27 -15 -14 -21 -23 -13 -18 8 5 4 -4 -9 -18 -14 -15 -31 -27 -38 -27 -8
0 -11 -4 -8 -10 6 -9 -8 -14 -27 -11 -5 0 -8 -3 -8 -9 0 -5 5 -10 11 -10 6 0
-3 -14 -20 -31 -17 -17 -28 -36 -24 -42 3 -7 3 -9 -1 -5 -4 3 -16 -2 -27 -13
-11 -11 -25 -17 -31 -13 -7 4 -8 3 -4 -4 4 -6 14 -9 24 -6 14 5 13 2 -3 -11
-11 -9 -19 -21 -18 -26 2 -5 0 -8 -5 -6 -4 1 -7 -1 -7 -5 0 -4 -9 -14 -20 -23
-11 -9 -14 -14 -7 -10 6 3 12 1 12 -5 0 -6 -10 -15 -22 -20 -13 -5 -17 -9 -10
-9 7 -1 10 -6 7 -11 -4 -6 -11 -8 -16 -5 -5 3 -6 -2 -2 -11 5 -13 3 -15 -8 -9
-11 6 -12 5 -2 -5 9 -10 8 -18 -7 -38 -11 -13 -17 -28 -14 -33 3 -5 0 -9 -6
-9 -6 0 -8 -4 -5 -10 7 -11 -19 -53 -27 -45 -2 3 -5 -2 -5 -10 0 -8 4 -12 8
-10 4 3 6 -3 4 -12 -2 -10 -4 -20 -4 -22 -1 -3 -8 4 -17 15 -15 18 -15 18 -5
-3 6 -12 8 -23 3 -26 -4 -2 -2 -2 5 -1 6 2 11 -5 10 -15 0 -11 -7 -17 -13 -14
-13 5 -14 -14 -1 -33 4 -7 -2 -10 -19 -8 -14 1 -23 -1 -19 -4 6 -7 10 -8 36
-11 5 0 7 -6 4 -11 -4 -6 -10 -8 -15 -5 -5 3 -7 -7 -4 -21 4 -23 3 -25 -10
-15 -11 9 -16 9 -22 -1 -4 -7 -4 -10 1 -6 15 14 35 -12 25 -32 -5 -9 -6 -20
-3 -24 3 -3 2 -6 -4 -6 -5 0 -10 -7 -10 -15 0 -8 4 -12 8 -10 4 3 9 -2 13 -10
3 -8 0 -17 -6 -21 -7 -4 -8 -3 -4 4 4 7 3 12 -2 12 -6 0 -13 -7 -16 -16 -3 -8
-2 -13 2 -10 4 2 14 1 22 -5 13 -7 12 -9 -2 -9 -9 0 -20 -5 -24 -12 -4 -7 -3
-8 4 -4 19 12 33 -3 22 -23 -6 -12 -5 -22 1 -28 8 -8 7 -13 0 -17 -6 -4 -11
-2 -11 5 0 7 -2 10 -5 7 -10 -10 7 -38 19 -31 6 4 4 -2 -4 -12 -9 -11 -10 -16
-2 -11 6 4 12 2 12 -3 0 -6 -6 -11 -14 -11 -8 0 -18 -5 -22 -11 -4 -7 0 -9 13
-5 14 4 19 1 19 -13 0 -15 -3 -17 -13 -9 -10 8 -12 7 -7 -6 3 -9 1 -16 -5 -16
-6 0 -11 7 -11 16 0 9 -5 12 -12 8 -6 -4 -8 -3 -4 4 3 6 1 14 -5 17 -5 4 -8
13 -5 21 3 8 1 14 -4 14 -6 0 -10 9 -10 19 0 11 -4 22 -10 26 -6 4 -6 15 1 32
8 22 8 24 -5 14 -12 -10 -14 -9 -9 8 3 13 1 21 -7 21 -8 0 -11 11 -8 30 3 22
1 30 -11 30 -13 0 -13 2 -2 9 11 7 11 9 0 13 -12 5 -12 9 -1 28 8 12 9 19 4
16 -20 -12 -34 27 -19 52 5 6 4 12 -1 12 -10 0 -9 36 1 46 13 13 8 27 -5 16
-10 -8 -13 -3 -13 19 0 19 5 29 15 30 9 0 6 4 -7 9 -19 8 -21 13 -12 42 11 41
11 40 -3 33 -7 -4 -2 3 12 14 14 12 19 20 11 19 -7 -2 -16 3 -19 11 -3 9 0 11
9 6 11 -6 12 -5 2 5 -10 11 -9 16 5 27 9 8 11 12 5 8 -8 -4 -13 0 -13 9 0 8
-5 18 -10 21 -6 4 -9 1 -8 -5 2 -7 -5 -14 -15 -15 -27 -5 -33 -14 -17 -28 9
-8 11 -8 6 0 -3 6 -2 14 3 17 19 12 4 -25 -17 -40 -12 -8 -19 -21 -15 -29 4
-11 1 -13 -11 -9 -9 3 -16 1 -16 -5 0 -6 4 -11 10 -11 6 0 5 -10 -2 -25 -6
-14 -13 -23 -16 -20 -3 2 -11 -3 -18 -13 -8 -12 -9 -21 -2 -29 7 -9 6 -15 -6
-19 -9 -3 -14 -10 -11 -14 9 -14 -6 -40 -19 -33 -6 4 -4 -2 4 -12 13 -17 13
-18 -1 -13 -9 4 -16 1 -16 -8 0 -7 3 -11 7 -9 4 2 7 -3 7 -11 0 -8 -6 -13 -12
-10 -6 2 -12 -2 -12 -10 0 -8 5 -14 11 -14 6 0 4 -4 -4 -10 -8 -5 -11 -12 -7
-16 4 -4 2 -14 -5 -21 -18 -22 -17 -52 1 -46 9 2 5 -3 -9 -11 -21 -13 -21 -20
1 -18 3 1 4 -10 1 -23 -2 -14 -7 -23 -11 -21 -4 3 -7 -5 -8 -17 0 -12 1 -16 4
-9 3 6 9 12 14 12 8 0 6 -12 -9 -50 -10 -28 -9 -70 2 -70 6 0 4 -5 -4 -10 -10
-6 -11 -10 -3 -10 9 0 12 -20 12 -65 -1 -45 -5 -63 -13 -58 -6 3 -7 2 -3 -3 5
-5 13 -10 18 -10 5 -1 14 -2 20 -3 5 0 7 -6 4 -11 -4 -6 -10 -8 -14 -6 -14 9
-6 -43 9 -56 12 -11 12 -10 0 7 -12 17 -12 18 0 7 8 -7 16 -30 16 -50 3 -60 4
-63 13 -57 5 3 12 1 15 -4 4 -5 2 -12 -4 -16 -6 -4 -7 -11 -4 -17 4 -7 2 -8
-4 -4 -7 4 -12 2 -12 -3 0 -11 15 -15 34 -12 5 1 3 -5 -4 -14 -11 -14 -11 -16
1 -13 10 2 13 -5 12 -25 -2 -19 2 -25 10 -20 7 4 7 0 -2 -10 -12 -15 -11 -17
3 -17 9 0 16 -5 16 -11 0 -5 -4 -7 -10 -4 -6 3 -7 -1 -4 -9 3 -9 11 -16 16
-16 6 0 6 -6 -1 -14 -9 -11 -9 -16 0 -22 8 -4 9 -3 5 4 -4 7 -2 12 4 12 7 0
10 -6 7 -12 -2 -7 -11 -13 -20 -13 -8 0 -19 -3 -22 -7 -4 -4 7 -5 25 -3 29 4
30 3 18 -12 -11 -14 -11 -16 4 -11 21 9 31 -2 16 -19 -6 -7 -8 -16 -4 -20 3
-3 6 -1 6 5 0 7 4 12 8 12 5 0 8 -10 8 -22 -1 -13 4 -22 11 -21 6 1 10 -5 8
-15 -3 -21 13 -54 24 -48 4 3 8 -2 8 -11 0 -12 -7 -9 -24 11 -12 15 -23 21
-23 14 0 -7 -9 1 -20 17 -11 17 -20 27 -20 23 0 -4 -9 0 -20 9 -13 12 -16 20
-9 29 7 9 5 11 -8 10 -10 0 -17 5 -15 12 2 11 -11 17 -32 13 -5 -1 -6 5 -3 14
4 9 1 15 -8 15 -8 0 -15 5 -15 11 0 6 9 8 23 4 17 -5 19 -4 7 4 -8 6 -24 8
-35 4 -18 -5 -18 -4 -6 11 8 9 10 16 5 15 -21 -4 -35 2 -29 11 3 6 2 10 -4 10
-6 0 -7 7 -4 17 4 11 3 14 -5 9 -7 -4 -13 -2 -13 3 -1 6 -2 14 -3 19 0 4 -11
21 -24 37 -13 17 -21 24 -17 18 11 -22 -4 -14 -16 8 -8 15 -8 19 0 15 6 -4 11
-2 11 3 0 6 -7 11 -16 11 -10 0 -14 5 -10 16 3 8 2 13 -2 10 -4 -3 -14 5 -22
17 -12 21 -12 21 5 7 17 -14 17 -14 5 7 -8 12 -18 19 -22 17 -13 -8 -9 11 5
25 7 8 7 11 1 8 -7 -4 -18 1 -25 10 -10 12 -10 14 -2 9 22 -13 -4 44 -29 64
-18 15 -20 20 -10 33 10 12 10 16 -3 20 -18 8 -36 -23 -30 -52 3 -11 7 -29 9
-39 3 -11 -1 -19 -10 -19 -17 0 -18 14 -1 20 9 4 9 6 0 6 -23 2 -25 -21 -4
-40 25 -23 25 -26 6 -26 -8 0 -16 6 -19 14 -3 7 -11 13 -17 13 -7 0 0 -11 14
-24 17 -16 22 -27 15 -34 -7 -7 -6 -16 1 -29 11 -16 11 -15 6 7 -5 23 -5 23 6
6 10 -16 9 -22 -7 -33 -10 -7 -24 -11 -31 -9 -9 4 -10 0 -2 -18 6 -12 18 -23
26 -23 13 0 13 2 -1 13 -12 8 -14 14 -6 19 6 4 17 1 26 -5 11 -10 12 -16 2
-27 -9 -11 -9 -16 3 -24 8 -5 10 -9 4 -9 -5 1 -19 7 -29 15 -11 8 -25 15 -30
15 -6 0 6 -10 27 -23 21 -13 35 -26 31 -30 -4 -4 -16 1 -27 10 -11 10 -17 12
-12 4 4 -8 2 -17 -6 -22 -9 -5 -3 -7 18 -5 21 3 33 0 37 -10 3 -9 1 -12 -4 -9
-14 9 -12 -9 2 -23 14 -14 20 -45 7 -36 -5 3 -9 -5 -9 -18 0 -16 -6 -24 -18
-25 -14 -1 -18 8 -20 48 -1 31 2 48 8 44 6 -3 10 -1 10 4 0 15 -13 14 -29 -1
-10 -9 -12 -9 -7 -1 3 6 2 14 -3 17 -10 7 -9 25 2 42 4 7 0 15 -9 18 -13 5
-14 9 -4 21 7 8 8 15 4 15 -5 0 -10 14 -10 30 -1 17 2 30 7 30 5 0 9 -4 9 -10
0 -5 5 -10 11 -10 8 0 8 4 0 14 -6 7 -9 21 -5 30 3 9 1 16 -6 16 -6 0 -9 -4
-5 -9 3 -5 1 -12 -5 -16 -5 -3 -10 3 -10 14 0 12 5 21 11 21 5 0 7 5 4 10 -4
6 -11 8 -16 5 -5 -3 -6 1 -3 9 3 9 11 16 18 16 7 0 7 3 1 8 -18 13 -16 33 2
30 11 -2 18 4 20 17 2 18 2 18 -5 2 -6 -15 -10 -16 -26 -4 -15 11 -16 16 -6
22 9 6 11 4 5 -6 -7 -11 -5 -11 11 1 29 22 30 24 11 17 -22 -8 -36 21 -16 34
10 6 10 9 2 9 -7 0 -13 5 -13 11 0 5 4 8 8 5 4 -2 8 6 8 20 0 15 -6 24 -15 24
-13 0 -13 2 1 16 15 16 15 18 -4 34 -17 13 -18 17 -5 17 9 0 13 -5 10 -10 -4
-6 -1 -7 7 -2 10 6 10 10 -3 20 -12 9 -13 15 -5 23 9 9 5 14 -13 21 -21 9 -22
10 -4 11 12 1 15 4 7 7 -10 4 -10 8 0 21 11 13 11 14 -1 7 -11 -6 -13 -3 -9
13 4 12 3 20 -1 17 -5 -2 -13 7 -20 21 -9 20 -9 24 1 17 19 -11 39 -13 32 -2
-3 5 -10 6 -16 3 -8 -5 -9 -1 -5 10 5 13 3 17 -7 13 -18 -7 -16 34 4 50 13 10
12 12 -7 8 -16 -3 -20 0 -16 11 3 7 10 11 17 7 7 -4 7 -1 -1 9 -7 8 -10 18 -6
21 3 4 2 7 -4 7 -5 0 -10 7 -10 15 0 11 7 13 21 9 21 -6 21 -6 0 10 -22 16
-27 67 -10 95 6 9 5 12 -2 7 -7 -4 -10 1 -9 14 1 11 5 20 10 20 4 0 5 6 0 13
-10 17 -12 57 -1 63 4 3 8 10 8 15 0 6 -5 7 -11 3 -8 -5 -8 -1 0 13 6 11 7 24
3 28 -4 5 2 5 12 1 20 -7 20 -7 0 15 -16 19 -17 21 -2 16 13 -4 15 -2 11 10
-5 12 -3 14 7 8 9 -5 11 -4 6 4 -6 9 -11 9 -22 0 -10 -8 -14 -8 -14 0 0 6 5
11 11 11 5 0 8 4 4 9 -3 5 -2 12 3 15 4 2 7 25 7 50 -1 25 2 43 7 40 4 -3 8 2
8 11 0 10 -5 13 -12 9 -10 -6 -10 -5 -1 8 7 8 9 19 5 23 -4 5 -1 5 6 1 7 -4
10 -12 7 -17 -3 -5 1 -6 10 -2 9 3 13 9 7 12 -11 7 -23 53 -12 46 4 -3 11 3
14 12 4 9 1 20 -6 25 -10 6 -10 8 1 8 8 0 11 7 8 20 -3 11 -1 23 5 26 5 3 7
12 5 19 -4 8 3 11 19 9 13 -1 22 2 18 7 -3 5 -10 7 -15 4 -5 -4 -9 -1 -9 6 0
6 8 9 20 6 11 -3 18 -1 14 4 -3 5 -13 9 -22 9 -11 0 -13 3 -6 8 6 4 10 15 8
25 -1 9 2 15 6 12 5 -3 11 -1 15 5 3 5 0 10 -7 10 -9 0 -9 3 2 10 12 8 10 10
-8 10 -13 0 -21 -4 -18 -9 3 -5 -1 -12 -10 -15 -9 -4 -14 -13 -10 -21 3 -8 0
-14 -7 -12 -7 1 -11 -4 -9 -12 3 -12 0 -12 -13 -1 -13 11 -15 10 -9 -4 3 -9 1
-16 -6 -16 -6 0 -8 -4 -5 -10 3 -5 -3 -17 -15 -27 -11 -10 -20 -23 -20 -31 0
-7 -4 -11 -9 -8 -5 3 -12 -1 -15 -10 -4 -10 -2 -13 7 -9 6 4 4 0 -5 -8 -10 -8
-14 -18 -10 -22 4 -5 0 -6 -9 -3 -9 4 -16 1 -16 -8 0 -7 5 -10 11 -7 6 4 5 -1
-2 -10 -8 -9 -10 -22 -6 -28 5 -8 3 -9 -5 -5 -8 5 -14 0 -18 -13 -3 -11 -9
-18 -14 -15 -5 3 -9 -2 -9 -11 0 -10 5 -13 12 -9 7 4 8 3 4 -5 -4 -6 -12 -9
-17 -6 -5 4 -9 -2 -9 -12 0 -10 -7 -29 -16 -41 -8 -12 -12 -27 -8 -34 5 -7 3
-8 -6 -3 -10 6 -12 4 -7 -9 5 -11 3 -15 -5 -10 -8 5 -9 2 -5 -9 3 -9 1 -19 -5
-23 -7 -5 -8 -2 -3 6 5 9 4 11 -4 6 -8 -6 -9 -12 -2 -20 11 -13 5 -26 -11 -26
-5 0 -6 5 -2 12 4 7 3 8 -4 4 -6 -4 -9 -13 -6 -21 4 -8 10 -12 16 -9 5 3 4 -3
-3 -14 -7 -12 -17 -18 -22 -15 -5 3 -4 -4 2 -14 6 -11 7 -24 3 -28 -4 -3 -7
-10 -8 -13 -2 -16 -18 -48 -28 -54 -8 -5 -7 -8 1 -8 7 0 10 -7 7 -15 -4 -8
-10 -12 -15 -9 -13 7 -7 -19 6 -28 6 -5 5 -8 -2 -8 -7 0 -10 -7 -7 -15 4 -8 1
-15 -5 -15 -6 0 -8 -7 -4 -17 4 -11 3 -14 -5 -9 -18 11 -14 -5 6 -27 16 -19
16 -20 -6 -8 -18 9 -22 9 -20 -1 2 -7 7 -16 12 -20 6 -4 5 -12 -3 -21 -8 -11
-9 -17 -1 -22 7 -4 8 -11 1 -18 -10 -13 -11 -16 -11 -53 0 -14 -4 -23 -8 -20
-5 3 -9 -1 -9 -9 0 -8 4 -12 8 -10 10 7 5 -22 -6 -32 -4 -4 -5 -2 0 6 5 9 4
12 -3 7 -18 -11 -14 -26 6 -26 14 0 15 -2 2 -10 -13 -9 -13 -10 0 -10 13 0 13
-1 0 -10 -13 -9 -13 -10 0 -10 12 0 13 -2 1 -9 -7 -5 -10 -14 -7 -20 4 -6 3
-11 -2 -11 -6 0 -13 -8 -17 -17 -5 -15 -4 -16 6 -5 7 6 18 12 23 12 6 -1 0
-10 -14 -22 l-25 -21 25 7 c23 6 23 6 8 -7 -21 -16 -24 -29 -5 -22 9 4 12 -13
12 -65 1 -38 -3 -64 -7 -57 -5 8 -8 8 -8 1 0 -6 6 -17 13 -23 8 -6 13 -23 12
-38 -1 -16 3 -34 8 -41 7 -8 4 -18 -7 -31 -13 -14 -14 -21 -5 -27 8 -4 10 -3
5 4 -4 7 -2 12 3 12 15 0 14 -13 -1 -29 -11 -11 -10 -12 1 -6 11 6 13 4 8 -8
-4 -12 -1 -17 11 -18 12 0 11 -3 -6 -9 -12 -5 -25 -16 -28 -24 -3 -8 -13 -17
-21 -20 -13 -5 -14 -4 -3 9 7 8 9 15 4 15 -5 0 0 7 10 15 11 8 16 15 11 15 -5
0 -16 -7 -26 -16 -13 -12 -19 -12 -25 -3 -4 8 -3 10 4 5 7 -4 12 -2 12 3 0 6
-4 11 -10 11 -5 0 -10 7 -10 16 0 10 -6 14 -14 11 -10 -4 -12 0 -9 14 3 12 0
19 -8 19 -11 0 -11 2 1 10 12 8 12 10 -5 10 -17 0 -17 2 -5 10 13 9 13 10 0
11 -8 1 -18 1 -21 1 -4 -1 -6 9 -5 21 1 14 -4 21 -13 19 -8 -2 -11 3 -8 13 4
8 2 15 -3 15 -5 0 -6 7 -3 17 4 10 2 14 -4 10 -10 -6 -33 31 -39 62 -1 8 -9
18 -16 23 -9 6 -5 7 12 4 23 -6 23 -5 5 5 -12 5 -27 20 -34 31 -11 18 -11 20
3 15 10 -4 13 -1 9 8 -3 8 -9 12 -14 9 -5 -3 -9 2 -9 10 0 9 -4 16 -8 16 -4 0
-9 12 -10 26 -1 15 -7 33 -14 41 -9 11 -9 17 3 24 11 7 10 9 -6 9 -17 0 -17 2
-5 10 13 8 12 10 -2 10 -20 0 -23 11 -8 26 8 8 5 15 -7 25 -17 13 -17 13 -3
-6 14 -19 14 -19 -3 -6 -13 10 -15 17 -6 27 7 9 8 14 1 14 -5 0 -13 7 -16 16
-5 13 -4 14 7 6 11 -9 13 -7 12 11 -1 12 -9 23 -18 25 -14 3 -15 7 -5 25 10
20 9 21 -5 9 -13 -11 -15 -10 -10 7 3 12 1 21 -6 21 -6 0 -11 7 -11 16 0 8 -5
12 -11 9 -6 -4 -8 -13 -5 -21 3 -7 0 -16 -6 -20 -7 -5 -8 -2 -3 6 5 8 4 11 -1
7 -5 -3 -9 -26 -8 -51 1 -26 -2 -48 -6 -51 -4 -2 -6 -18 -5 -34 1 -17 -2 -28
-7 -25 -4 3 -8 0 -8 -5 0 -6 6 -11 13 -11 8 0 9 -3 1 -8 -6 -4 -11 -21 -11
-38 1 -16 -3 -37 -8 -45 -12 -19 -15 -40 -5 -34 4 3 11 -2 14 -11 3 -8 2 -13
-3 -10 -13 8 -22 -23 -12 -41 6 -11 10 -12 15 -4 4 6 2 11 -3 11 -6 0 -11 5
-11 11 0 8 5 7 15 -1 14 -12 13 -15 -4 -34 -20 -21 -23 -48 -6 -63 4 -4 5 -2
1 5 -10 18 -1 15 15 -5 10 -11 10 -14 2 -9 -8 4 -13 2 -13 -4 0 -6 -4 -9 -9
-6 -5 4 -8 -2 -6 -11 1 -10 -1 -23 -6 -29 -5 -7 -3 -11 5 -11 8 0 13 8 11 19
-2 10 0 18 5 18 5 0 7 -21 4 -46 -3 -29 0 -52 8 -62 11 -13 10 -15 -3 -10 -10
4 -16 1 -16 -8 0 -8 6 -13 14 -10 10 4 11 1 3 -14 -8 -15 -7 -18 2 -15 8 3 13
-3 13 -19 0 -13 -4 -21 -10 -18 -5 3 -3 -3 6 -14 9 -10 15 -27 14 -36 -2 -10
0 -20 5 -23 4 -3 6 -15 2 -27 -3 -13 -1 -19 5 -15 6 4 10 -1 10 -11 0 -51 4
-73 12 -67 6 3 8 -8 6 -26 -3 -22 1 -37 13 -46 16 -14 16 -14 0 -9 -12 3 -15
1 -11 -9 3 -8 10 -12 16 -8 6 4 8 0 4 -10 -3 -10 -2 -17 3 -17 5 0 6 -7 3 -17
-4 -11 -3 -14 5 -9 7 4 12 1 12 -8 0 -9 5 -16 12 -16 6 0 8 -3 5 -6 -4 -4 -12
-3 -20 2 -7 5 -5 2 5 -8 10 -9 19 -28 20 -41 1 -14 10 -31 19 -38 10 -7 14
-20 11 -32 -4 -14 -2 -18 7 -12 10 6 11 2 6 -16 -7 -22 -7 -23 10 -9 17 14 17
13 6 -7 -10 -20 -9 -22 6 -16 15 5 16 3 6 -8 -16 -16 -17 -29 -2 -29 5 0 7 6
3 13 -5 8 -2 8 9 -2 20 -16 22 -32 4 -27 -6 1 -9 1 -5 -1 4 -2 4 -11 1 -19 -3
-8 0 -14 6 -14 6 0 11 -7 11 -15 0 -8 5 -15 11 -15 7 0 5 10 -5 25 -15 23 -15
25 0 25 10 0 14 -3 11 -6 -11 -11 13 -45 26 -38 9 5 8 3 0 -7 -7 -7 -13 -16
-13 -21 0 -4 6 -6 13 -4 6 1 9 1 6 -1 -4 -2 -5 -14 -2 -26 3 -14 -1 -11 -13
11 -16 31 -34 43 -34 22 0 -5 -8 -2 -18 8 -10 9 -17 22 -15 28 3 7 -1 15 -8
20 -8 5 -10 3 -4 -5 5 -9 1 -9 -14 1 -12 7 -21 20 -21 28 0 13 -1 13 -10 0 -8
-12 -10 -10 -10 9 0 13 -3 22 -6 18 -11 -10 -36 22 -28 35 5 8 1 8 -12 -2 -10
-8 -16 -11 -12 -6 4 4 -6 21 -22 36 -16 15 -26 31 -23 34 4 3 1 6 -6 6 -7 0
-9 4 -6 10 3 5 0 7 -9 4 -15 -6 -43 32 -37 51 1 6 0 7 -4 3 -12 -11 -38 21
-31 38 3 8 2 13 -3 9 -5 -3 -17 -2 -26 1 -12 5 -13 9 -5 14 9 5 5 10 -10 15
-16 5 -19 9 -10 15 9 6 7 10 -9 15 -12 3 -21 15 -21 26 0 10 -7 19 -15 19 -9
0 -12 6 -8 17 5 12 3 14 -7 8 -10 -6 -12 -3 -7 14 5 19 3 20 -11 9 -12 -10
-14 -10 -8 0 4 6 3 12 -2 12 -6 0 -13 7 -16 16 -4 10 -2 13 7 9 6 -4 4 0 -5 8
-10 8 -15 17 -11 20 3 4 -1 7 -10 7 -10 0 -14 6 -11 14 3 8 0 17 -7 22 -8 5
-10 3 -4 -7 8 -12 6 -12 -8 0 -20 16 -22 37 -4 44 7 4 6 6 -4 6 -9 1 -23 9
-30 18 -8 10 -9 14 -2 10 6 -4 14 -3 18 3 3 5 -3 10 -14 10 -15 0 -21 6 -21
21 0 11 -4 17 -10 14 -5 -3 -10 4 -10 16 0 19 -2 20 -16 8 -9 -7 -12 -15 -7
-16 6 -2 7 -20 3 -43 -5 -26 -3 -41 4 -43 6 -2 -2 -11 -19 -21 -25 -14 -26
-16 -6 -10 20 5 23 3 18 -10 -4 -10 -3 -15 3 -11 6 3 10 2 10 -4 0 -5 -6 -12
-12 -14 -8 -3 -5 -6 5 -6 10 -1 15 -6 12 -11 -4 -6 -10 -8 -15 -5 -4 3 -6 -4
-3 -15 3 -11 9 -18 13 -15 10 6 7 -15 -4 -34 -6 -9 -5 -12 1 -8 6 4 13 -4 15
-17 3 -16 1 -23 -7 -20 -7 3 -11 -7 -11 -25 0 -17 3 -28 7 -25 5 2 6 12 3 22
-5 14 -4 15 5 2 6 -8 8 -23 5 -32 -3 -10 -1 -18 4 -18 15 0 23 -28 10 -36 -6
-4 -8 -3 -4 4 3 6 2 13 -2 16 -7 4 -8 -16 -3 -56 1 -5 8 -8 17 -8 8 0 12 -5 9
-10 -4 -6 -11 -8 -16 -5 -5 3 -6 -1 -3 -9 3 -9 10 -14 14 -11 5 3 12 0 16 -6
5 -8 3 -9 -6 -4 -8 5 -11 3 -8 -6 3 -8 -2 -23 -11 -33 -13 -16 -13 -18 -1 -11
8 5 20 10 26 11 12 2 13 -34 1 -53 -5 -8 -1 -11 15 -8 22 4 22 4 4 -10 -18
-14 -15 -20 8 -16 5 1 3 -6 -5 -15 -9 -12 -9 -15 -1 -10 7 4 12 1 12 -9 0 -10
5 -13 12 -9 7 4 8 3 4 -5 -6 -8 -12 -9 -20 -2 -9 8 -13 7 -13 -4 0 -7 3 -14 6
-13 18 2 33 -3 28 -9 -4 -3 0 -15 10 -25 9 -10 13 -18 8 -18 -4 0 -1 -8 6 -17
12 -15 12 -16 -5 -10 -15 6 -17 5 -8 -6 7 -8 9 -17 5 -21 -4 -4 0 -4 9 -1 20
8 30 -7 16 -25 -8 -12 -8 -11 -3 5 5 15 3 17 -6 8 -12 -12 -3 -37 11 -28 4 3
16 -7 25 -21 9 -15 12 -23 6 -20 -6 4 -11 0 -11 -10 0 -10 3 -14 7 -11 3 4 12
-1 19 -11 9 -12 9 -20 1 -30 -8 -11 -7 -13 7 -10 13 2 20 -4 22 -20 3 -17 0
-21 -8 -16 -10 6 -10 5 -1 -8 7 -8 9 -19 5 -23 -4 -5 -1 -5 6 -1 7 4 10 12 7
17 -4 5 -1 9 4 9 6 0 11 -7 11 -15 0 -8 5 -15 10 -15 7 0 7 -6 2 -17 -5 -10
-5 -29 -1 -43 9 -25 9 -25 5 2 -2 17 1 28 9 28 7 0 12 -12 11 -27 -1 -19 6
-31 22 -39 32 -16 38 -24 13 -19 -12 2 -19 0 -16 -6 4 -5 10 -7 14 -4 5 2 17
-3 27 -11 10 -9 13 -13 7 -9 -9 4 -11 1 -7 -9 3 -9 10 -13 15 -10 5 3 9 -2 9
-10 0 -9 7 -16 16 -16 8 0 12 -5 9 -10 -4 -6 -10 -8 -14 -6 -4 3 -8 -1 -8 -8
0 -11 4 -12 20 -3 15 9 21 9 24 -1 3 -7 14 -21 25 -32 19 -17 19 -18 1 -29
-13 -8 -14 -11 -3 -10 36 3 51 -1 43 -13 -19 -32 1 -45 36 -23 9 5 12 4 8 -2
-4 -6 5 -19 18 -29 14 -10 25 -23 25 -28 0 -5 -8 -2 -17 6 -10 8 -25 18 -33
22 -9 5 -8 2 2 -7 10 -8 14 -18 10 -22 -4 -5 -2 -5 5 -1 6 3 14 2 18 -4 4 -6
10 -8 15 -5 4 3 19 0 32 -5 23 -10 23 -10 1 -6 -13 2 -26 -1 -30 -6 -3 -6 -1
-8 5 -4 6 3 18 -4 28 -16 11 -15 14 -17 11 -5 -4 9 -2 17 3 17 6 0 10 -10 10
-22 0 -17 3 -19 9 -10 6 10 10 7 15 -12 3 -14 11 -26 17 -26 8 0 8 5 -1 15 -6
8 -10 20 -7 27 4 8 6 7 6 -4 1 -10 5 -18 10 -18 10 0 27 -39 23 -52 -1 -5 1
-7 6 -7 19 3 31 -4 75 -44 44 -40 59 -67 37 -67 -5 0 -9 3 -9 8 3 19 -2 25
-11 12 -8 -13 -10 -13 -10 2 0 9 -5 20 -11 24 -8 4 -9 -1 -5 -17 3 -13 3 -18
0 -11 -3 6 -19 12 -35 12 -21 0 -29 5 -30 18 0 9 -3 12 -5 6 -3 -7 -14 -10
-24 -7 -11 3 -17 10 -13 17 4 8 3 8 -6 0 -14 -12 -61 3 -61 20 0 5 -6 3 -14
-3 -11 -9 -15 -8 -20 4 -3 9 -10 13 -16 10 -5 -3 -10 -2 -10 2 0 5 -9 9 -21
10 -12 1 -28 10 -36 20 -14 17 -14 17 -9 0 3 -11 2 -16 -4 -12 -6 3 -10 13
-10 20 0 9 -6 12 -17 8 -10 -4 -14 -2 -10 4 5 7 -1 9 -15 5 -13 -3 -19 -1 -15
5 4 6 0 14 -9 17 -9 4 -13 2 -8 -5 4 -8 0 -7 -15 0 -11 7 -21 19 -21 28 0 13
-3 14 -12 5 -8 -8 -15 -6 -29 9 -10 11 -20 20 -23 20 -21 -3 -26 0 -20 10 4 8
-1 9 -16 4 -12 -4 -20 -3 -18 1 6 11 -28 45 -36 37 -3 -4 -6 0 -6 8 0 11 -2
11 -10 -1 -8 -13 -10 -12 -10 3 0 9 -7 17 -16 17 -8 0 -12 5 -9 10 3 6 0 10
-8 10 -7 0 -23 9 -34 19 -12 11 -24 17 -29 13 -4 -4 -4 1 -1 11 4 10 3 16 -2
13 -5 -3 -14 1 -21 9 -7 8 -19 15 -27 15 -8 0 -11 5 -7 12 5 7 2 9 -8 5 -9 -3
-21 0 -28 6 -9 9 -9 5 1 -15 6 -15 17 -25 23 -21 6 3 6 0 -1 -7 -10 -11 -9
-16 5 -27 15 -13 15 -13 -8 -8 -14 4 -20 3 -14 -2 17 -13 32 -46 29 -66 -3
-14 1 -16 18 -11 12 3 19 3 15 -1 -4 -5 -2 -15 5 -23 10 -13 9 -14 -3 -7 -8 4
-12 5 -8 0 4 -4 4 -13 -2 -19 -6 -8 -2 -12 13 -13 18 -2 19 0 7 8 -10 7 -11 9
-2 7 8 -2 13 -7 12 -12 -1 -5 2 -12 7 -15 16 -12 33 -52 27 -63 -5 -8 -1 -9
10 -5 9 4 14 3 11 -2 -3 -5 -1 -12 4 -16 6 -3 8 -12 5 -20 -4 -8 -11 -12 -17
-8 -6 3 -7 1 -3 -6 6 -9 11 -9 21 -1 14 12 37 -9 34 -32 -3 -28 2 -38 20 -38
10 0 25 -8 32 -17 10 -11 10 -14 2 -9 -7 4 -13 2 -13 -3 0 -6 4 -11 9 -11 4 0
21 -12 37 -27 17 -15 22 -24 11 -20 -9 3 -17 2 -17 -3 0 -9 13 -13 26 -7 3 1
12 -9 19 -23 7 -14 17 -24 22 -22 4 1 9 -2 9 -8 1 -5 2 -14 3 -20 0 -5 6 -10
12 -10 5 0 7 5 4 10 -9 15 1 12 14 -4 9 -11 9 -16 0 -22 -8 -5 -9 -3 -4 6 6 9
4 11 -4 6 -16 -10 -5 -21 19 -21 11 0 34 -17 53 -37 19 -21 37 -35 40 -32 3 3
4 -5 3 -18 -2 -15 2 -25 10 -25 7 0 11 4 8 9 -3 4 -1 8 5 8 5 0 13 -9 16 -21
6 -17 9 -18 23 -7 14 11 15 10 9 -5 -5 -13 -3 -17 5 -14 22 7 70 -33 65 -54
-3 -10 0 -17 7 -16 6 1 10 -3 9 -9 -1 -6 4 -11 12 -11 8 0 12 4 9 9 -11 17 49
2 61 -16 7 -9 17 -15 22 -14 12 4 83 -34 83 -45 0 -4 -12 1 -27 10 -15 10 -24
13 -20 6 4 -6 1 -13 -5 -16 -7 -2 -9 -8 -5 -13 4 -5 12 -2 17 6 6 10 12 11 22
2 11 -9 18 -9 28 1 10 10 12 9 7 -4 -3 -9 -1 -22 4 -30 6 -10 9 -11 10 -1 3
27 4 31 13 39 5 5 6 3 2 -4 -4 -8 -2 -13 5 -13 8 0 8 -4 1 -12 -8 -10 -1 -13
31 -12 49 0 77 -14 77 -38 0 -20 15 -24 26 -6 4 7 3 8 -4 4 -8 -5 -10 -1 -5 9
4 12 8 13 13 5 4 -6 14 -12 22 -14 9 -1 23 -8 32 -15 12 -10 16 -11 16 -1 0
10 3 10 15 0 8 -7 15 -9 15 -5 0 4 7 2 15 -5 17 -14 20 -30 4 -30 -5 0 -8 4
-5 8 3 5 -1 9 -9 9 -8 0 -15 -3 -15 -7 0 -9 51 -32 58 -25 3 3 0 5 -6 5 -6 0
-9 7 -6 15 6 16 38 15 54 -1 7 -7 6 -11 -4 -11 -8 0 -13 3 -11 7 2 4 -2 7 -10
7 -11 0 -12 -4 -4 -13 6 -7 8 -19 4 -26 -4 -7 1 -4 9 6 9 11 16 16 16 11 0 -5
5 -4 12 3 27 27 29 9 2 -20 -16 -18 -20 -25 -8 -16 19 17 21 17 39 0 19 -17
19 -17 1 6 -18 20 -18 22 -2 22 9 0 15 4 12 8 -3 5 1 9 8 9 7 0 13 -6 13 -13
0 -7 -4 -11 -9 -8 -4 3 -8 0 -8 -5 0 -13 17 -14 24 -2 7 11 55 11 62 0 2 -4
12 -6 22 -3 13 5 14 4 4 -4 -11 -7 -11 -10 2 -15 9 -4 13 -13 10 -21 -7 -18
12 -31 22 -15 5 8 3 9 -6 4 -8 -5 -11 -3 -8 5 2 7 12 14 23 16 10 1 22 9 27
16 6 9 7 5 3 -10 -10 -33 21 -56 45 -33 9 9 15 19 13 23 -4 8 18 5 34 -5 6 -4
13 -4 16 0 2 5 2 2 0 -5 -2 -9 3 -11 16 -7 11 3 22 2 24 -3 7 -10 -34 -10 -50
1 -6 4 -14 3 -17 -2 -4 -5 -3 -11 1 -14 5 -2 3 -3 -4 -1 -6 1 -14 0 -17 -4
-11 -11 -39 -11 -60 0 -15 8 -22 7 -30 -3 -12 -16 -26 -18 -106 -22 -30 -1
-58 -6 -62 -12 -5 -6 -8 -3 -8 7 0 9 -4 20 -10 23 -6 3 -7 -1 -4 -10 6 -14 -3
-16 -70 -13 -42 2 -76 -1 -76 -6 0 -5 -6 -3 -14 3 -11 9 -15 9 -19 -1 -4 -10
-6 -10 -6 0 -1 6 -6 12 -12 12 -5 0 -7 -6 -4 -13 4 -6 0 -4 -8 6 -14 17 -15
17 -22 0 -4 -10 -9 -13 -11 -7 -3 5 -18 9 -34 8 -17 -1 -30 3 -30 8 0 6 -6 5
-15 -2 -11 -10 -18 -9 -30 4 -18 17 -30 21 -21 7 3 -5 -1 -12 -10 -15 -9 -3
-12 -2 -9 5 5 6 -10 9 -43 7 -28 -2 -50 -2 -50 1 2 18 -4 22 -16 12 -9 -7 -17
-8 -20 -2 -3 5 -16 7 -29 3 -20 -5 -21 -4 -7 13 14 17 14 17 -9 4 -17 -10 -25
-11 -28 -3 -2 7 -13 10 -23 7 -15 -4 -17 -9 -10 -23 5 -9 6 -20 3 -24 -3 -3 3
-6 14 -6 11 0 27 -8 34 -17 10 -11 10 -14 2 -9 -7 4 -13 2 -13 -3 0 -6 4 -11
10 -11 5 0 7 -6 4 -14 -3 -8 -1 -17 5 -21 6 -3 9 0 5 8 -7 20 8 28 26 15 12
-8 11 -8 -5 -3 -15 4 -17 3 -9 -5 6 -6 18 -12 25 -13 21 -4 60 -33 52 -40 -11
-12 -25 -8 -17 5 5 7 3 8 -6 3 -9 -6 -11 -4 -5 6 6 11 5 11 -5 2 -7 -6 -20 -9
-29 -6 -9 4 -13 3 -9 -1 3 -4 13 -8 21 -10 8 -1 22 -8 31 -15 11 -9 16 -10 16
-2 0 6 5 11 11 11 5 0 7 -4 4 -10 -3 -5 -1 -10 4 -10 6 0 11 8 11 18 1 9 7 2
15 -17 10 -23 12 -38 5 -46 -7 -8 -5 -12 4 -12 8 0 13 9 11 23 -1 15 2 21 12
17 8 -3 11 -13 8 -24 -4 -11 -2 -19 5 -19 6 0 9 -4 5 -9 -3 -5 0 -13 6 -17 7
-4 9 -3 5 4 -3 6 -1 14 4 17 13 8 52 -24 45 -35 -3 -5 4 -6 15 -3 17 5 15 8
-16 29 -19 14 -40 21 -46 18 -7 -5 -8 -2 -3 6 6 9 4 11 -5 5 -9 -5 -11 -4 -6
4 8 12 19 8 49 -17 9 -8 17 -12 17 -8 0 4 7 0 16 -9 9 -9 23 -14 31 -11 8 3
11 1 8 -4 -3 -6 -1 -10 5 -10 6 0 8 -4 5 -10 -3 -5 -1 -10 4 -10 6 0 11 5 11
11 0 6 7 3 16 -5 8 -9 20 -14 25 -11 5 4 9 1 9 -4 0 -6 3 -10 8 -9 16 4 52
-14 52 -26 0 -8 7 -20 17 -27 15 -13 15 -12 5 8 -15 27 -15 45 -1 20 8 -14 14
-15 24 -7 9 8 17 7 29 -5 19 -20 21 -32 3 -16 -10 8 -14 7 -14 -3 0 -17 25
-14 39 5 8 11 9 11 4 -3 -3 -11 2 -19 15 -23 10 -4 16 -11 13 -17 -5 -7 -2 -8
6 -3 10 6 10 11 -4 20 -15 11 -15 13 -1 19 9 3 13 2 10 -3 -3 -5 -1 -12 4 -15
5 -4 12 -2 16 3 4 7 15 6 30 -1 25 -11 29 -19 26 -48 -1 -11 1 -11 9 3 6 9 8
23 4 30 -4 6 3 3 16 -8 20 -17 23 -18 17 -2 -4 9 -2 17 3 17 6 0 10 -6 10 -13
0 -8 10 -22 23 -33 l22 -19 -20 23 c-14 17 -16 23 -5 20 8 -2 20 -12 27 -23 8
-13 12 -15 13 -6 0 8 3 11 7 8 3 -4 12 -2 19 4 10 8 11 5 7 -13 l-5 -23 16 23
c20 25 36 29 36 7 0 -8 -5 -15 -11 -15 -5 0 -7 5 -3 12 5 7 3 8 -5 3 -10 -5
-10 -10 -1 -19 8 -8 14 -7 23 5 10 13 15 14 24 4 7 -7 9 -17 5 -21 -4 -5 0 -3
9 4 19 14 30 6 22 -16 -4 -13 -2 -13 9 2 8 10 20 16 26 12 6 -3 14 -1 18 5 4
7 3 9 -4 5 -6 -3 -14 -1 -18 5 -4 8 -3 9 4 5 7 -4 12 -1 12 6 0 7 9 0 20 -17
l21 -30 -6 30 c-4 17 -3 26 2 20 4 -5 17 -12 28 -13 11 -2 24 -8 29 -13 6 -5
15 -9 20 -9 6 0 4 5 -4 11 -12 8 -11 9 5 6 11 -2 19 -9 17 -16 -1 -7 2 -10 8
-6 5 3 10 1 10 -6 0 -7 3 -10 6 -7 3 4 1 15 -5 27 -8 14 -8 22 1 27 7 4 8 3 4
-4 -9 -15 6 -16 21 -1 8 8 15 4 27 -12 14 -21 21 -19 17 4 -1 4 7 3 18 -3 26
-13 34 -13 25 2 -9 15 14 2 43 -25 l22 -20 -4 26 c-5 27 9 45 20 27 5 -8 11
-7 21 1 8 6 14 8 14 4 0 -4 8 -1 18 6 15 13 16 12 3 -4 -9 -12 -10 -17 -2 -17
7 0 9 -5 5 -12 -4 -8 -3 -10 2 -5 5 5 9 14 9 20 0 13 30 14 58 2 10 -4 17 -3
17 5 0 6 -4 9 -9 5 -5 -3 -13 0 -17 6 -4 8 -3 9 4 5 7 -4 12 -2 12 5 0 7 9 2
20 -11 11 -13 20 -19 20 -14 0 5 5 2 11 -6 9 -13 10 -12 5 3 -7 22 3 22 21 0
13 -16 13 -16 3 5 -8 16 -17 21 -30 17 -10 -3 -21 -1 -24 4 -4 6 8 8 29 6 19
-2 32 1 29 6 -3 5 2 6 11 2 14 -5 14 -8 3 -15 -10 -8 -10 -9 2 -5 8 2 22 -2
31 -9 13 -12 16 -12 16 1 0 8 -4 12 -8 10 -4 -3 -9 2 -12 9 -7 17 18 42 27 27
3 -5 15 -7 26 -4 13 3 20 0 20 -8 0 -11 3 -11 11 1 9 12 10 11 6 -6 -2 -12 1
-21 8 -21 7 0 10 10 7 22 -2 13 1 26 8 30 7 4 11 1 9 -6 -3 -27 1 -40 12 -33
8 4 7 9 -2 15 -11 7 -10 9 3 9 9 0 19 -6 21 -12 4 -10 6 -9 6 1 1 11 4 11 18
0 11 -10 14 -10 9 -2 -10 18 10 16 28 -3 17 -16 13 -34 -7 -34 -8 0 -8 3 2 9
7 5 9 11 4 14 -6 4 -15 -5 -22 -19 -6 -14 -16 -22 -21 -19 -6 3 -13 -1 -16 -9
-3 -9 -10 -13 -15 -10 -5 3 -9 -1 -9 -8 0 -9 -3 -9 -10 2 -8 13 -10 13 -10 -2
0 -12 -5 -15 -17 -11 -12 5 -14 3 -8 -7 5 -8 4 -11 -3 -6 -6 3 -13 2 -17 -4
-4 -6 -11 -8 -16 -5 -5 4 -9 1 -9 -4 0 -6 -7 -11 -16 -11 -8 0 -12 -4 -9 -10
3 -5 1 -10 -4 -10 -6 0 -11 5 -11 12 0 6 -7 3 -16 -8 -8 -10 -13 -12 -9 -4 4
10 2 9 -8 -2 -8 -10 -22 -18 -31 -18 -9 0 -16 -5 -16 -12 0 -6 -3 -8 -7 -5 -3
4 -13 1 -21 -6 -13 -10 -14 -9 -7 3 6 11 3 10 -12 -3 -11 -9 -29 -17 -40 -17
-12 0 -24 -6 -26 -12 -4 -9 -6 -9 -6 -1 -1 13 -41 5 -41 -8 0 -5 -3 -8 -7 -7
-12 2 -66 -12 -86 -23 -11 -6 -22 -8 -25 -5 -3 3 1 6 8 6 7 0 11 2 8 5 -3 3
-18 -1 -33 -9 -16 -8 -32 -13 -37 -10 -4 3 -8 0 -8 -5 0 -13 -22 -10 -32 4 -4
6 -8 2 -8 -9 0 -15 -3 -16 -15 -6 -13 11 -14 10 -10 -3 7 -17 -25 -19 -37 -2
-5 7 -11 6 -15 0 -5 -6 -19 -12 -32 -12 -13 -1 -29 -7 -35 -14 -8 -9 -8 -10 1
-5 6 3 18 -1 27 -10 9 -8 21 -12 27 -8 8 5 9 3 4 -6 -6 -10 -4 -12 9 -7 11 5
15 3 10 -5 -5 -7 1 -9 20 -6 14 3 29 2 31 -2 3 -4 18 -6 35 -5 16 1 28 -1 25
-5 -3 -4 2 -10 10 -14 8 -3 17 -1 20 4 4 6 11 10 18 10 6 0 5 -5 -4 -12 -8 -7
-12 -12 -10 -11 2 2 10 -2 18 -8 7 -6 13 -8 13 -4 0 4 7 2 15 -5 11 -9 19 -10
26 -3 6 6 4 10 -6 11 -8 1 -22 3 -30 4 -18 2 -11 11 10 14 8 1 15 -2 15 -8 0
-7 5 -7 13 1 8 6 17 7 21 3 7 -7 11 -8 37 -11 14 -1 -8 -31 -23 -31 -7 0 -6 5
1 13 8 10 7 14 -4 14 -8 0 -13 -2 -10 -5 2 -2 -4 -12 -13 -21 -10 -9 -13 -13
-7 -10 5 4 22 6 38 4 15 -2 25 1 21 6 -3 5 -1 9 5 9 5 0 11 -5 13 -12 3 -7 7
-5 11 6 4 9 3 15 -1 12 -5 -3 -9 2 -9 10 0 10 4 11 11 4 13 -13 29 -13 21 0
-3 6 1 7 9 4 9 -3 16 -10 16 -16 0 -5 -4 -7 -9 -4 -5 3 -15 -2 -22 -11 -12
-15 -12 -16 1 -8 29 18 49 16 45 -5 -2 -11 0 -20 6 -20 10 0 8 28 -4 47 -11
17 37 9 69 -12 20 -13 28 -14 34 -5 10 17 23 14 32 -7 7 -16 8 -16 5 2 -2 16
-10 20 -35 19 -17 0 -32 2 -32 6 0 4 30 6 68 5 37 -1 75 2 86 7 13 7 16 7 12
-1 -4 -6 0 -11 9 -11 10 0 13 5 9 13 -6 9 -4 9 8 -1 14 -11 18 -10 27 5 6 10
11 13 11 8 0 -6 -7 -21 -16 -33 -8 -12 -11 -22 -6 -22 6 0 13 7 16 16 5 14 9
14 24 3 14 -11 15 -11 5 1 -13 14 -19 39 -6 27 3 -4 12 -2 20 4 10 9 13 8 13
-1 0 -10 4 -9 16 1 14 11 15 10 12 -6 -2 -12 3 -19 19 -20 14 -1 19 3 16 12
-3 7 -9 10 -14 7 -5 -3 -9 0 -9 6 0 7 7 10 15 6 8 -3 19 2 24 12 6 9 11 12 11
7 0 -6 -5 -16 -11 -22 -8 -8 -7 -13 3 -19 20 -13 38 -13 35 -1 -1 7 4 11 12 9
12 -3 12 0 1 12 -7 10 -8 16 -2 16 6 0 13 -4 17 -10 3 -6 15 -6 29 0 13 5 27
6 30 3 3 -4 13 2 20 13 11 14 11 21 3 26 -7 4 2 6 18 5 17 -1 29 3 28 9 -1 6
10 9 28 6 20 -3 29 0 29 9 0 11 2 11 10 -1 11 -18 21 -10 23 19 2 27 3 27 22
-6 8 -16 14 -20 13 -11 -2 9 0 16 4 15 4 -1 14 7 22 18 9 11 16 16 16 11 0 -4
12 -1 26 9 15 9 23 12 19 5 -5 -8 -3 -11 6 -8 8 3 14 10 14 16 0 5 4 14 9 19
5 5 6 3 2 -4 -4 -8 -1 -13 8 -13 9 0 15 3 15 8 -3 20 3 23 18 11 9 -8 14 -9
10 -3 -6 11 17 39 32 39 3 0 5 4 3 8 -1 5 2 6 8 2 6 -4 18 -1 27 7 9 7 14 9
11 3 -3 -5 1 -16 8 -23 13 -12 14 -10 8 12 -5 22 -3 25 11 20 14 -6 16 -3 10
16 -5 16 -4 21 6 18 8 -3 13 -12 11 -22 -2 -9 2 -16 8 -16 6 0 9 4 6 9 -3 5 1
11 9 15 8 3 15 11 15 18 0 9 -3 9 -11 -2 -8 -12 -10 -12 -7 -1 5 18 40 24 50
8 5 -8 8 -7 8 5 0 9 -4 18 -9 20 -5 2 9 16 31 32 23 17 38 24 33 16 -6 -10 -4
-12 7 -7 22 8 30 -3 15 -22 -11 -14 -10 -14 6 -2 15 12 16 16 4 30 -15 17 -12
41 4 41 6 0 7 -5 4 -10 -3 -6 1 -10 10 -10 9 0 15 6 14 13 -1 6 1 20 6 31 8
17 9 17 20 -4 l12 -22 6 21 c3 13 1 19 -5 14 -7 -3 -8 -1 -4 6 4 6 12 8 18 5
7 -5 9 -2 5 8 -3 9 -1 20 5 26 13 13 40 4 31 -11 -3 -5 -1 -7 5 -4 5 4 8 16 5
26 -3 10 1 22 8 26 7 5 10 4 6 -2 -4 -6 1 -19 9 -29 9 -10 12 -13 9 -6 -12 24
-13 63 -1 59 6 -2 10 -12 8 -22 -3 -14 -1 -15 11 -4 8 8 11 16 6 17 -5 2 -9
11 -9 20 0 15 2 15 10 2 7 -11 10 -11 10 -2 0 7 4 11 9 7 5 -3 12 -1 15 4 4 5
1 13 -5 17 -8 5 -9 3 -4 -6 6 -9 4 -11 -4 -5 -9 5 -7 13 10 31 16 17 26 21 34
14 9 -7 12 -5 12 7 0 34 3 43 14 43 8 0 8 -5 -1 -15 -7 -9 -8 -15 -2 -15 12 0
24 29 16 41 -3 5 2 9 11 9 9 0 23 7 31 15 18 18 4 20 -15 3 -11 -10 -10 -8 0
10 17 27 25 28 38 5 14 -24 14 -7 1 18 -7 12 -7 19 -1 19 6 0 18 16 27 36 10
20 25 39 35 41 10 3 15 11 12 19 -3 10 2 14 18 14 19 0 21 2 9 10 -13 8 -13
11 -1 22 11 11 13 11 6 -1 -6 -10 -4 -12 4 -7 7 5 10 14 7 22 -3 8 1 17 9 20
7 3 12 11 9 18 -3 7 3 19 12 27 12 9 15 10 10 2 -4 -8 -2 -13 4 -13 8 0 10 9
6 25 -4 15 -2 25 4 25 6 0 9 -4 5 -9 -3 -5 0 -13 7 -17 7 -4 10 -4 6 1 -4 4
-3 16 3 26 8 15 6 18 -8 13 -15 -5 -15 -3 2 11 11 9 20 19 19 23 -3 20 10 42
28 48 12 3 17 9 11 13 -5 3 -8 11 -8 16 1 20 39 74 59 84 19 10 19 11 -4 5
-17 -3 -21 -2 -12 4 8 5 13 12 13 16 -2 16 0 18 12 8 10 -8 13 -6 13 8 0 10
-3 17 -7 14 -6 -3 -5 19 1 36 1 3 2 9 1 13 -1 5 3 6 9 2 8 -5 7 -12 -2 -23
-11 -15 -11 -15 3 -4 10 7 14 21 11 37 -2 15 0 25 7 25 6 0 11 7 11 16 0 9 -5
12 -12 8 -7 -4 -8 -3 -4 4 4 7 17 10 29 8 12 -1 16 -1 10 1 -7 3 -13 9 -13 14
0 6 -6 7 -12 3 -7 -4 -4 2 6 14 23 26 34 30 15 5 -13 -16 -12 -17 3 -5 16 13
16 15 0 40 -12 19 -13 24 -3 17 11 -6 13 -4 8 8 -3 8 1 21 8 27 8 7 12 17 8
23 -4 6 0 8 10 4 9 -3 19 -2 22 4 4 5 3 9 -2 8 -20 -3 -27 2 -13 11 10 6 11
10 3 10 -7 0 -13 5 -13 11 0 5 5 7 11 3 8 -5 8 -1 0 14 -8 15 -7 23 3 31 7 6
15 9 18 6 2 -3 5 1 5 9 0 9 -6 12 -16 8 -13 -5 -14 -3 -4 10 7 8 10 18 6 21
-3 4 0 7 8 7 11 0 11 2 -1 10 -11 7 -12 10 -2 10 9 0 11 7 7 21 -5 14 -3 19 3
15 6 -4 8 2 4 16 -3 14 -1 19 6 14 6 -3 14 -2 17 4 4 6 1 9 -6 8 -15 -4 -19
51 -5 84 13 34 15 49 5 42 -5 -3 -9 0 -9 5 0 6 5 11 11 11 6 0 3 7 -5 16 -21
21 -20 30 1 13 15 -13 15 -12 6 5 -7 13 -8 29 -2 43 5 13 5 23 0 23 -10 0 -8
40 2 58 8 11 2 16 -16 13 -5 -1 -5 3 -2 9 4 6 13 9 21 6 7 -3 16 0 20 6 4 6 3
8 -2 5 -6 -3 -16 -2 -24 4 -12 7 -11 9 5 9 19 1 19 1 2 11 -15 9 -16 13 -5 27
10 12 10 14 1 8 -7 -4 -13 -2 -13 3 0 6 6 11 13 11 9 0 9 3 -1 9 -8 5 -16 25
-18 46 -2 21 -5 40 -8 43 -3 2 -1 13 5 23 7 13 6 19 -1 19 -6 0 -8 5 -3 13 11
18 13 38 2 31 -5 -3 -6 -10 -3 -16 4 -6 2 -8 -4 -5 -11 8 -11 25 1 44 6 9 3
11 -7 7 -11 -4 -13 0 -9 15 3 12 1 21 -6 21 -6 0 -11 4 -11 10 0 5 8 7 18 4
13 -4 13 -2 -3 8 -11 7 -20 19 -21 26 -1 6 -2 21 -2 33 -1 11 -6 18 -11 15 -5
-3 -8 10 -7 29 1 35 -7 46 -18 23 -3 -7 -4 -4 -3 7 1 11 -5 28 -14 39 -10 10
-15 24 -12 32 3 8 1 14 -5 14 -5 0 -13 7 -16 16 -5 14 -4 15 9 4 13 -11 14
-10 9 4 -3 9 -12 16 -20 16 -8 0 -14 7 -14 15 0 8 -5 15 -11 15 -8 0 -7 6 2
18 7 9 9 14 4 9 -12 -10 -55 32 -49 48 3 6 -11 24 -31 39 -19 15 -35 34 -35
43 0 9 -15 31 -34 49 -19 18 -31 36 -27 40 3 4 1 4 -6 0 -6 -3 -16 2 -22 11
-6 10 -11 14 -11 8 0 -5 -8 0 -18 13 -17 22 -17 22 -29 2 -11 -17 -10 -18 5
-13 14 6 15 4 4 -9 -10 -13 -10 -18 -1 -24 8 -4 9 -3 5 4 -4 7 -2 12 3 12 6 0
11 -9 11 -21 0 -13 4 -18 12 -13 7 4 8 3 4 -5 -6 -9 -12 -9 -24 1 -15 11 -15
11 -5 -3 7 -9 10 -19 6 -23 -4 -4 1 -4 11 0 12 5 17 2 16 -7 -5 -36 1 -80 10
-74 6 3 10 -4 11 -17 1 -13 2 -32 3 -43 0 -11 -3 -29 -8 -40 -9 -20 -9 -20 15
0 13 11 19 13 12 6 -6 -7 -9 -20 -6 -27 3 -8 -1 -22 -8 -31 -10 -12 -10 -15
-1 -9 12 7 14 4 15 -41 0 -17 -5 -27 -12 -25 -7 1 -10 -2 -6 -8 3 -6 11 -7 17
-4 6 4 8 -1 3 -16 -5 -17 -4 -21 6 -16 8 4 5 0 -5 -8 -11 -9 -14 -16 -7 -16 7
0 10 -4 7 -9 -4 -5 -7 -28 -8 -51 -1 -22 -5 -35 -9 -29 -4 7 -5 26 -3 43 2 17
0 26 -4 20 -4 -6 -16 -16 -27 -22 -11 -6 -14 -12 -7 -12 6 0 12 -4 12 -10 0
-5 -7 -7 -15 -4 -11 5 -13 2 -9 -10 4 -12 0 -16 -15 -16 -13 0 -19 -5 -15 -13
3 -8 -2 -20 -11 -27 -8 -7 -15 -20 -15 -29 0 -14 -2 -14 -10 -1 -8 13 -10 12
-10 -3 0 -12 -4 -16 -12 -11 -10 6 -10 4 0 -8 10 -13 10 -18 1 -24 -8 -5 -9
-3 -4 6 5 8 3 11 -4 9 -7 -3 -12 -8 -11 -13 1 -5 -10 -16 -24 -26 -15 -9 -23
-19 -20 -23 4 -3 -5 -9 -20 -13 -14 -3 -24 -9 -22 -13 2 -3 -13 -15 -35 -25
-21 -10 -36 -23 -32 -29 3 -5 0 -8 -8 -5 -7 2 -25 -1 -38 -8 -14 -7 -28 -11
-33 -8 -4 3 -8 -1 -8 -8 0 -9 -3 -9 -10 2 -7 12 -10 12 -10 1 0 -8 -6 -11 -16
-7 -12 5 -15 2 -10 -10 5 -14 4 -15 -8 -5 -11 9 -16 9 -21 1 -4 -7 -18 -10
-31 -7 -13 2 -24 1 -24 -3 0 -4 -9 -10 -20 -13 -11 -3 -20 0 -20 5 0 7 -5 6
-14 -1 -11 -9 -16 -9 -21 0 -6 8 -10 7 -16 -2 -6 -10 -9 -11 -9 -2 0 7 -10 13
-22 13 -13 0 -33 1 -46 1 -15 0 -20 4 -15 12 4 7 0 6 -10 -2 -11 -8 -17 -9
-17 -3 0 6 -7 9 -15 6 -8 -3 -20 -2 -27 2 -7 5 -15 9 -18 10 -34 6 -59 18 -54
25 3 5 -4 9 -15 9 -12 0 -21 7 -21 16 0 8 -4 12 -10 9 -5 -3 -10 -1 -10 5 0 6
-4 9 -9 6 -5 -3 -12 1 -15 10 -3 9 -11 12 -18 8 -7 -4 -4 3 7 16 l20 23 -27
-17 c-26 -17 -26 -17 -24 7 2 18 -2 23 -18 23 -13 -1 -25 8 -31 22 -5 12 -18
25 -28 28 -9 3 -15 9 -12 14 3 5 -1 15 -9 23 -8 8 -12 17 -9 21 4 3 -2 6 -13
7 -10 0 -13 3 -6 6 8 3 5 11 -10 25 -13 11 -17 17 -10 13 6 -3 12 -1 12 4 0 6
-6 11 -14 11 -8 0 -17 7 -20 16 -6 14 -4 15 11 4 10 -7 6 -1 -9 13 -24 22 -25
26 -10 30 16 4 16 5 0 6 -10 0 -18 8 -18 17 0 9 -5 12 -12 8 -7 -4 -8 -3 -4 5
4 6 1 25 -8 41 -8 17 -10 32 -5 36 5 3 7 10 3 15 -4 6 -11 5 -20 -2 -12 -10
-15 -10 -12 2 2 8 8 17 13 21 6 5 6 8 -1 8 -7 0 -15 7 -18 16 -5 12 -3 14 7 8
7 -5 4 -1 -6 9 -11 10 -17 20 -14 24 4 3 2 12 -3 19 -6 6 -9 18 -8 25 2 8 -3
13 -10 11 -8 -1 -11 2 -7 8 3 6 11 8 16 5 5 -4 9 -1 9 4 0 6 -4 11 -10 11 -5
0 -10 7 -10 15 0 8 -6 15 -12 15 -10 0 -10 2 0 9 16 9 14 20 -5 40 -12 11 -11
15 4 27 14 11 14 14 3 12 -10 -2 -15 6 -16 23 -1 14 -5 32 -9 40 -8 12 -6 12
8 0 15 -12 17 -12 11 3 -3 9 -10 16 -14 16 -4 0 -11 7 -14 16 -3 8 -2 12 4 9
14 -9 12 8 -2 24 -11 11 -10 12 2 6 10 -5 8 -1 -4 13 -11 12 -16 25 -13 29 4
3 7 1 7 -5 0 -7 4 -12 8 -12 4 0 8 8 8 19 0 10 -5 17 -11 15 -13 -5 -14 44 -2
64 5 7 5 12 0 11 -22 -4 -25 3 -7 17 15 13 16 15 2 10 -14 -4 -16 -1 -8 18 5
13 6 26 3 30 -3 3 -5 38 -5 78 0 52 3 72 12 70 6 -1 9 2 5 7 -3 6 -13 8 -23 5
-13 -4 -14 -3 -4 4 9 6 12 27 10 69 -3 56 -2 60 17 56 19 -4 19 -4 2 7 -15 9
-16 14 -6 27 10 12 10 17 -2 25 -11 8 -11 9 3 4 10 -3 20 0 24 6 4 6 3 8 -3 5
-6 -4 -16 0 -23 8 -11 13 -10 14 4 9 9 -3 16 -1 16 5 0 6 -6 11 -12 11 -7 0
-5 5 5 11 14 8 16 14 6 25 -9 11 -8 19 7 37 16 18 16 19 2 8 -11 -8 -18 -9
-18 -3 0 6 5 14 10 17 6 4 8 15 5 25 -3 10 0 22 6 26 7 4 9 3 5 -4 -3 -6 -3
-13 2 -16 4 -2 8 6 8 19 0 13 -3 22 -7 19 -4 -2 -11 1 -15 7 -4 7 -3 9 3 6 6
-4 19 0 29 8 18 15 18 15 -1 8 -11 -3 -17 -3 -13 2 4 4 2 15 -5 23 -10 13 -9
14 12 3 13 -7 21 -8 17 -3 -3 6 -3 12 1 15 5 2 2 2 -4 1 -7 -2 -13 1 -13 6 0
6 6 10 13 10 8 0 7 3 -3 10 -13 8 -13 11 -1 22 11 11 13 11 6 -1 -5 -9 -4 -12
3 -7 6 4 9 13 6 21 -4 8 -11 12 -18 8 -6 -4 -5 1 3 10 15 19 26 23 15 5 -5 -7
-3 -8 5 -3 9 5 9 11 3 17 -12 12 -5 38 10 38 6 0 5 -6 -2 -15 -9 -10 -9 -15
-1 -15 6 0 11 3 12 8 0 4 2 18 5 32 3 19 2 21 -6 10 -7 -12 -9 -10 -7 7 0 12
5 19 11 16 5 -4 7 3 3 16 -5 19 -3 20 10 9 15 -12 15 -10 3 12 -13 24 -12 24
5 10 17 -14 17 -13 7 5 -8 16 -6 29 7 58 10 20 20 34 24 30 7 -6 9 4 10 44 0
12 4 20 8 17 8 -5 14 17 10 39 0 4 4 7 10 7 5 0 7 5 3 12 -4 6 -3 8 4 4 6 -3
13 3 17 14 3 11 12 20 18 20 7 0 6 4 -3 10 -13 8 -12 10 3 10 9 0 17 5 17 11
0 5 -5 7 -11 4 -6 -4 -5 2 3 14 7 12 16 21 20 21 5 0 8 6 8 14 0 7 7 19 15 26
8 7 13 16 10 20 -2 4 4 15 14 24 18 17 20 17 24 -1 3 -10 5 -4 6 15 1 32 15
43 24 20 4 -10 6 -10 6 0 1 7 -6 15 -13 18 -11 4 -7 14 19 40 19 19 39 34 45
34 6 0 9 4 5 9 -3 5 3 11 12 13 10 3 -1 6 -23 9 -31 3 -40 1 -37 -8z m-197
-133 c0 -5 -5 -10 -11 -10 -5 0 -7 5 -4 10 3 6 8 10 11 10 2 0 4 -4 4 -10z
m-1216 -1056 c3 -8 2 -12 -4 -9 -6 3 -10 10 -10 16 0 14 7 11 14 -7z m352 -93
c0 -16 -4 -27 -9 -24 -4 2 -5 9 -2 14 4 5 -1 12 -10 15 -13 6 -14 8 -3 15 21
14 26 11 24 -20z m-1406 -15 c0 -3 -4 -8 -10 -11 -5 -3 -10 -1 -10 4 0 6 5 11
10 11 6 0 10 -2 10 -4z m443 -350 c-2 -21 1 -26 10 -19 7 4 6 1 -3 -7 -9 -9
-14 -22 -12 -29 4 -12 2 -12 -11 0 -11 11 -12 17 -3 28 8 12 8 13 -1 7 -8 -4
-13 -2 -13 4 0 6 -5 8 -11 4 -6 -3 -3 6 6 20 22 33 41 29 38 -8z m547 -1 c11
-13 10 -14 -4 -9 -9 3 -16 10 -16 15 0 13 6 11 20 -6z m-530 -65 c-6 -11 -12
-20 -14 -20 -2 0 -2 9 1 20 3 11 9 20 15 20 5 0 4 -9 -2 -20z m2971 -67 c13
-16 12 -17 -3 -4 -17 13 -22 21 -14 21 2 0 10 -8 17 -17z m-2606 -45 c0 -6 7
-13 15 -15 9 -3 11 -1 5 4 -13 11 -17 33 -6 33 11 0 24 -39 21 -64 -1 -11 3
-16 9 -11 7 3 11 3 10 -2 -1 -4 0 -10 1 -13 3 -10 11 -45 12 -57 1 -7 5 -13
10 -13 4 0 8 -4 8 -10 0 -5 -7 -6 -17 -3 -11 4 -14 3 -9 -5 4 -7 3 -12 -1 -12
-13 0 -37 44 -34 63 1 9 -3 17 -8 17 -6 0 -11 9 -11 21 0 13 -4 18 -12 13 -7
-4 -8 -3 -4 4 4 6 13 9 21 5 8 -3 15 0 15 6 0 6 -3 10 -7 10 -21 -3 -29 3 -31
28 -1 14 1 23 5 19 5 -4 8 -13 8 -18z m105 -177 c0 -2 -8 -10 -17 -18 -10 -8
-12 -12 -5 -8 18 9 42 -13 35 -32 -4 -11 -2 -14 5 -9 8 5 10 1 5 -10 -5 -13
-3 -15 7 -9 8 5 11 4 6 -3 -3 -6 4 -18 16 -26 12 -9 17 -16 11 -16 -13 0 -12
-25 2 -37 4 -4 5 -3 1 4 -3 6 -1 15 5 19 7 4 9 3 5 -4 -3 -6 0 -14 8 -19 14
-8 16 -12 16 -34 0 -5 5 -7 10 -4 6 3 10 1 10 -4 0 -6 -5 -11 -11 -11 -5 0 -8
-4 -4 -10 3 -5 11 -7 19 -4 8 3 12 -5 12 -26 0 -16 -4 -30 -8 -30 -20 0 -68
66 -68 92 0 16 -5 28 -11 28 -5 0 -7 -6 -3 -12 5 -9 2 -8 -9 1 -11 8 -14 18
-8 25 11 14 10 47 -1 40 -5 -3 -6 -9 -3 -14 3 -5 0 -12 -6 -16 -8 -4 -9 -3 -5
4 4 7 2 12 -4 12 -6 0 -8 5 -5 10 3 6 -1 13 -10 16 -14 6 -14 7 1 18 14 11 14
13 -3 27 -16 13 -17 13 -4 -3 9 -12 10 -18 2 -18 -6 0 -11 5 -11 11 0 5 -6 7
-12 3 -10 -6 -10 -4 0 8 9 12 10 18 2 23 -6 4 -9 13 -6 21 3 9 -1 11 -12 8
-14 -5 -14 -4 -3 4 14 10 51 12 51 3z m-109 -271 c3 -3 5 -21 5 -40 -1 -23 6
-43 19 -57 42 -45 45 -51 29 -57 -10 -4 -13 -2 -8 6 5 7 3 8 -6 3 -8 -5 -11
-4 -7 3 11 17 -2 38 -26 39 l-22 1 23 -11 c12 -5 21 -15 19 -21 -6 -17 11 -44
36 -56 21 -11 21 -10 3 4 -11 9 -16 19 -13 23 10 9 36 -29 30 -44 -3 -7 -9
-11 -13 -8 -5 3 -13 -3 -19 -12 -9 -15 -12 -15 -20 -4 -5 7 -7 23 -5 35 2 11
2 15 -2 9 -3 -7 -10 -13 -15 -13 -6 0 -5 8 1 20 9 16 8 19 -6 13 -11 -4 -15
-3 -10 5 3 6 2 13 -4 17 -29 18 -51 131 -24 123 5 -2 8 -6 7 -10 -1 -3 3 -11
11 -17 9 -8 13 -7 13 4 0 8 -5 11 -11 8 -6 -4 -5 1 3 10 12 15 9 21 -11 18 -5
0 -8 5 -8 12 -1 7 -7 4 -15 -7 -8 -10 -12 -23 -9 -27 3 -5 0 -9 -7 -9 -6 0 -9
8 -6 20 3 10 0 21 -6 23 -5 1 -11 11 -13 21 -2 11 2 16 11 12 8 -3 17 -1 20 5
4 5 3 9 -2 8 -4 -1 -11 0 -15 1 -5 1 -13 3 -20 4 -6 0 -13 7 -16 15 -3 10 0
12 12 8 9 -4 16 -2 16 3 0 6 17 -9 38 -32 20 -24 40 -45 43 -48z m264 -10 c-2
-12 0 -18 6 -14 14 8 59 -46 52 -63 -4 -9 0 -11 11 -7 10 4 18 0 22 -10 3 -9
10 -13 15 -10 5 3 6 -3 2 -12 -4 -12 -3 -15 6 -10 6 4 11 4 10 -1 -4 -23 2
-35 17 -29 8 3 12 2 9 -4 -3 -6 -2 -10 3 -10 9 0 12 -29 3 -31 -26 -6 -50 -5
-46 2 3 4 -2 14 -10 22 -8 9 -15 21 -15 27 0 6 -4 9 -9 6 -8 -5 -39 23 -33 31
6 9 1 23 -8 18 -9 -6 -15 8 -11 29 1 5 -5 6 -14 2 -9 -3 -13 -2 -10 4 3 6 1
10 -6 10 -7 0 -4 7 7 15 18 14 17 14 -11 5 -29 -11 -29 -11 -10 9 10 12 15 21
11 21 -4 0 -4 5 -1 10 10 16 14 12 10 -10z m-782 -25 c-7 -21 -12 -19 -10 4 0
11 5 18 9 15 4 -3 5 -11 1 -19z m3107 11 c0 -2 -7 -7 -16 -10 -8 -3 -12 -2 -9
4 6 10 25 14 25 6z m-26 -52 c3 -8 2 -12 -4 -9 -6 3 -10 10 -10 16 0 14 7 11
14 -7z m0 -32 c3 -5 -1 -9 -9 -9 -8 0 -12 4 -9 9 3 4 7 8 9 8 2 0 6 -4 9 -8z
m-2468 -111 c-4 -5 0 -12 6 -14 9 -4 7 -6 -3 -6 -24 -1 -43 -27 -28 -37 7 -4
9 -3 6 3 -11 17 25 25 41 9 12 -12 11 -17 -7 -35 -24 -24 -16 -29 9 -6 15 13
19 13 29 2 9 -11 8 -17 -4 -27 -10 -9 -15 -9 -15 -1 0 6 5 11 11 11 5 0 7 5 4
11 -5 6 -13 3 -22 -10 -8 -12 -17 -21 -21 -21 -4 0 -18 21 -32 47 -18 33 -21
48 -12 51 7 2 9 9 6 14 -4 6 -2 8 4 4 6 -3 13 -2 17 4 3 5 8 10 11 10 3 0 3
-4 0 -9z m362 -3 c9 -9 12 -9 12 2 0 7 2 11 5 8 9 -8 -6 -38 -16 -32 -5 3 -9
0 -9 -5 0 -14 17 -14 25 -1 4 6 17 -4 29 -22 15 -21 20 -37 14 -45 -12 -16 11
-28 25 -14 9 9 7 11 -8 6 -18 -6 -19 -5 -3 7 15 13 15 15 -3 26 -10 7 -19 17
-19 22 0 6 10 0 23 -12 12 -13 21 -26 20 -30 -2 -5 2 -8 8 -8 8 0 7 -5 -1 -15
-7 -9 -10 -18 -6 -22 3 -3 6 -1 6 5 0 7 7 12 15 12 21 0 19 -20 -2 -21 -10 -1
-21 -1 -25 0 -25 4 -34 7 -39 13 -3 5 -18 9 -33 10 -15 1 -32 8 -37 15 -6 6
-18 9 -27 6 -15 -4 -15 -3 -2 6 8 6 16 15 16 21 1 5 2 11 3 13 2 1 4 15 6 32
3 21 1 25 -5 15 -5 -8 -12 -11 -17 -7 -4 5 -1 12 7 17 20 13 24 12 38 -2z
m-133 -27 c-3 -2 -11 1 -18 7 -8 7 -18 8 -22 4 -5 -4 -5 -1 -1 5 5 10 11 10
26 1 11 -7 17 -14 15 -17z m83 -15 c16 1 20 -2 12 -11 -5 -6 -7 -14 -5 -17 3
-3 -3 -8 -15 -11 -11 -3 -23 0 -27 5 -3 6 -1 8 4 5 6 -4 13 -1 16 6 3 8 -4 12
-22 11 -42 -2 -55 6 -34 21 14 11 21 11 33 1 8 -7 25 -11 38 -10z m2096 -8
c-3 -4 -9 -8 -15 -8 -5 0 -9 4 -9 8 0 5 7 9 15 9 8 0 12 -4 9 -9z m-16 -37
c-7 -9 -13 -18 -15 -20 -1 -2 -1 5 0 16 0 11 7 20 14 20 10 0 10 -4 1 -16z
m-25 -26 c4 -8 3 -16 -1 -19 -4 -3 -9 4 -9 15 -2 23 3 25 10 4z m-2273 -21 c0
-8 6 -14 13 -14 8 0 7 -4 -3 -10 -13 -9 -7 -14 12 -11 5 0 21 -17 37 -39 15
-21 32 -36 36 -32 5 4 5 1 1 -6 -4 -7 -11 -10 -15 -8 -4 3 -13 1 -21 -5 -11
-6 -11 -9 -2 -9 7 0 17 -10 23 -22 9 -23 10 -23 5 -1 -2 13 2 24 11 27 8 3 11
1 8 -4 -3 -6 1 -10 9 -10 19 0 21 -16 4 -26 -7 -4 -8 -3 -4 4 4 7 5 12 2 12
-3 0 -10 -9 -16 -20 -9 -16 -8 -18 5 -14 8 4 15 1 15 -5 0 -6 5 -11 11 -11 8
0 8 4 0 14 -9 11 -8 15 4 20 9 3 13 2 10 -4 -6 -9 8 -14 28 -11 5 1 6 -3 3 -8
-7 -11 33 -43 45 -36 4 3 6 -3 5 -12 -2 -10 1 -21 6 -24 5 -3 -1 -17 -12 -30
-12 -13 -19 -18 -15 -11 4 7 -3 16 -18 21 -13 5 -34 23 -47 39 -14 17 -29 28
-34 25 -5 -3 -6 -1 -2 5 4 7 1 12 -8 12 -8 0 -18 9 -21 20 -4 11 -10 18 -15
15 -5 -3 -11 4 -15 15 -3 11 -11 20 -16 20 -5 0 -9 6 -9 14 0 7 -8 16 -18 18
-10 3 -26 22 -36 42 -9 20 -21 34 -26 31 -5 -3 -12 0 -16 6 -4 8 -3 9 4 5 7
-4 12 -3 12 3 0 5 -6 11 -12 14 -7 2 -10 8 -6 12 4 4 15 2 25 -6 9 -8 14 -9
10 -2 -4 7 0 13 10 15 23 6 33 0 33 -18z m417 2 c-3 -7 0 -20 6 -27 10 -11 9
-11 -5 0 -13 10 -18 10 -18 2 0 -7 -4 -10 -10 -6 -5 3 -2 14 8 25 21 23 26 24
19 6z m-1477 -16 c0 -5 -2 -10 -4 -10 -3 0 -8 5 -11 10 -3 6 -1 10 4 10 6 0
11 -4 11 -10z m3315 -10 c-3 -5 -13 -6 -21 -3 -12 4 -13 8 -3 14 15 9 32 2 24
-11z m-41 -65 c-9 -14 -20 -22 -25 -19 -8 5 -13 -9 -10 -28 2 -13 -16 -9 -29
7 -11 13 -10 14 5 9 13 -5 16 -4 11 4 -6 11 5 17 27 13 4 0 8 4 8 9 1 6 3 15
4 20 1 6 3 13 4 16 0 3 5 2 11 -1 6 -4 4 -15 -6 -30z m-54 -70 c0 -2 -7 -1
-17 2 -10 4 -14 2 -9 -5 3 -6 -3 -13 -14 -17 -11 -3 -20 -13 -20 -21 0 -17 -9
-18 -30 -3 -13 9 -12 10 2 5 11 -3 19 2 23 15 4 10 11 17 16 14 8 -6 13 8 10
28 -1 4 8 3 19 -3 11 -6 20 -13 20 -15z m-113 -62 c-4 -3 -2 -12 4 -20 9 -10
8 -13 0 -13 -7 0 -10 -4 -6 -9 3 -6 -4 -8 -15 -6 -18 3 -25 -5 -21 -27 0 -4
-7 -4 -16 -1 -12 5 -14 3 -8 -7 5 -9 4 -11 -3 -6 -7 4 -12 3 -12 -2 0 -6 -7
-13 -16 -16 -11 -4 -14 -1 -12 12 2 9 10 16 16 15 7 -2 12 2 12 7 0 6 7 10 16
10 8 0 12 5 9 10 -3 6 -1 10 5 10 6 0 8 5 4 13 -6 9 -5 9 8 0 15 -13 28 -8 28
9 0 5 -6 6 -12 2 -9 -5 -9 -2 1 9 7 9 16 17 19 17 3 0 2 -3 -1 -7z m34 -6 c-1
-12 -15 -9 -19 4 -3 6 1 10 8 8 6 -3 11 -8 11 -12z m-3423 -32 c-3 -3 -9 2
-12 12 -6 14 -5 15 5 6 7 -7 10 -15 7 -18z m482 5 c0 -5 -7 -7 -15 -4 -8 4
-15 8 -15 10 0 2 7 4 15 4 8 0 15 -4 15 -10z m1115 0 c-3 -5 -1 -10 6 -10 8 0
7 -5 -2 -17 -13 -15 -12 -15 6 -6 16 9 25 7 43 -7 l23 -19 -23 2 c-13 0 -26 5
-29 9 -6 9 -39 0 -39 -11 0 -3 23 -7 50 -8 30 -1 50 3 50 10 0 5 3 7 6 4 10
-10 -25 -57 -42 -57 -8 0 -17 7 -20 15 -4 8 -10 12 -15 9 -5 -3 -9 0 -9 7 0 7
-3 9 -7 6 -3 -4 -12 -2 -19 4 -11 9 -10 15 3 35 8 13 12 24 9 24 -4 0 -4 5 -1
10 3 6 8 10 11 10 3 0 2 -4 -1 -10z m1670 -67 c-2 -10 -4 -21 -4 -25 -1 -5 -7
-7 -13 -5 -7 1 -12 -4 -10 -11 1 -8 -2 -11 -8 -7 -5 3 -10 2 -10 -3 0 -6 -6
-12 -13 -15 -8 -3 -13 3 -13 18 0 13 3 22 7 19 4 -2 12 3 19 11 6 7 18 11 26
8 8 -3 14 -2 13 3 -2 13 0 24 5 24 2 0 3 -8 1 -17z m-1549 -19 c-4 -12 -2 -15
9 -10 8 3 15 1 15 -5 0 -6 5 -7 11 -3 8 5 8 1 0 -14 -15 -29 -32 -37 -42 -21
-7 12 -9 12 -9 0 0 -8 -3 -12 -6 -9 -3 4 -1 16 5 27 10 17 9 20 -4 15 -8 -4
-15 -14 -16 -23 0 -10 -2 -11 -6 -3 -2 6 -10 9 -16 5 -7 -3 -3 3 7 15 11 12
25 22 33 22 8 0 11 5 8 10 -3 6 -1 10 5 10 7 0 9 -7 6 -16z m61 -46 c-1 -14 6
-26 22 -34 26 -13 47 -42 37 -51 -3 -4 -6 -1 -6 5 0 11 -52 44 -66 41 -3 0 -9
3 -12 7 -4 4 -1 4 7 -1 10 -6 12 -4 6 4 -5 9 -10 10 -18 2 -26 -26 -28 -8 -2
19 34 36 35 36 32 8z m1401 -7 c-2 -9 -11 -15 -22 -13 -13 2 -16 -1 -10 -10 6
-9 3 -9 -10 1 -16 13 -17 13 -14 -4 1 -11 -2 -20 -9 -20 -6 0 -14 -3 -18 -7
-4 -4 -14 -4 -23 -1 -10 4 -13 2 -8 -5 4 -8 2 -10 -7 -6 -8 3 -17 -2 -21 -12
-5 -13 -9 -14 -21 -4 -13 11 -19 7 -17 -11 1 -3 -5 -6 -13 -6 -8 0 -12 4 -9 8
2 4 0 10 -6 14 -5 3 -10 -1 -10 -9 0 -9 -5 -16 -11 -16 -5 0 -8 -4 -5 -9 4 -5
-2 -7 -13 -4 -10 3 -22 0 -25 -6 -9 -14 -26 -14 -26 0 0 5 4 8 9 5 5 -3 14 1
21 9 20 24 -7 18 -32 -7 -13 -13 -30 -23 -38 -23 -8 -1 -14 -5 -13 -10 1 -6
-9 -10 -22 -10 -13 0 -21 3 -19 6 2 4 -5 9 -17 12 -16 4 -18 3 -9 -8 12 -15 4
-22 -25 -21 -11 1 -19 7 -17 14 1 8 -2 11 -8 7 -6 -4 -9 -12 -7 -19 4 -9 -7
-12 -34 -10 -24 1 -39 -3 -39 -10 0 -6 -5 -4 -10 4 -7 11 -14 12 -27 4 -10 -6
-35 -10 -55 -10 -21 1 -38 -2 -38 -7 0 -4 -5 -5 -11 -1 -8 4 -7 9 2 15 16 10
8 12 -15 3 -9 -3 -13 -11 -9 -17 3 -6 1 -7 -6 -3 -6 4 -9 11 -7 15 3 4 0 13
-6 21 -8 13 -9 13 -5 -1 3 -9 1 -22 -4 -30 -5 -8 -9 -9 -9 -4 0 6 -15 9 -32 9
-24 -1 -37 5 -46 20 l-13 21 4 -22 c3 -13 1 -26 -4 -29 -5 -3 -8 -2 -7 3 3 8
-5 13 -23 13 -5 0 -7 -6 -3 -12 6 -10 4 -10 -7 -2 -8 5 -27 9 -44 9 -16 -1
-36 3 -43 8 -10 8 -16 7 -24 -4 -8 -11 -9 -10 -4 4 4 12 2 17 -6 15 -14 -5
-42 19 -51 42 -4 12 -6 11 -6 -2 -2 -31 -1 -33 8 -33 5 0 12 -3 16 -7 4 -3 -1
-5 -12 -3 -10 2 -21 4 -24 4 -10 2 -29 51 -20 51 5 0 12 -6 14 -12 4 -10 6
-10 6 -1 1 15 -16 26 -29 18 -7 -4 -7 -13 0 -26 9 -15 7 -19 -5 -19 -9 0 -14
4 -10 9 3 5 0 13 -6 17 -7 4 -9 3 -5 -4 3 -6 2 -13 -4 -17 -5 -3 -10 -2 -10 4
0 5 -9 8 -20 6 -13 -2 -18 0 -14 7 4 6 1 9 -7 6 -8 -3 -20 2 -27 11 -8 9 -10
10 -7 3 6 -11 3 -12 -12 -3 -11 6 -23 7 -27 4 -3 -3 -6 -1 -6 6 0 7 -4 9 -10
6 -5 -3 -11 4 -11 17 -1 17 -3 18 -6 6 -2 -10 -9 -18 -15 -18 -5 0 -8 7 -4 15
3 8 1 15 -4 15 -6 0 -10 -6 -10 -12 0 -7 -11 4 -23 25 -13 22 -27 38 -31 37
-16 -4 -29 7 -22 19 6 9 13 8 29 -6 20 -17 20 -17 14 2 l-7 20 16 -20 c8 -11
22 -19 30 -17 12 2 14 -2 9 -17 -4 -13 -2 -21 5 -21 6 0 8 5 5 10 -3 6 -1 10
4 10 6 0 11 -4 11 -8 0 -4 9 -8 20 -9 13 -1 18 2 14 9 -4 7 -2 8 5 4 15 -10 3
-29 -15 -22 -8 3 -11 0 -8 -9 3 -8 13 -11 21 -8 11 4 14 2 9 -5 -4 -7 -2 -12
4 -12 6 0 10 6 9 13 -3 26 1 38 12 31 8 -4 7 -9 -2 -15 -10 -6 -8 -9 9 -9 24
0 28 -10 10 -28 -9 -9 -9 -12 0 -12 7 0 12 4 12 9 0 10 26 9 36 -2 4 -4 12 -7
18 -7 5 0 2 6 -9 13 -14 11 -15 16 -5 22 9 5 11 4 6 -3 -4 -7 -5 -12 -2 -12 2
0 12 -3 22 -7 12 -5 15 -3 9 6 -6 10 -3 11 14 2 11 -7 21 -9 21 -5 0 3 7 1 16
-7 13 -10 17 -10 25 2 5 9 9 10 9 2 0 -6 -5 -15 -11 -19 -8 -4 -3 -11 12 -20
16 -8 28 -9 36 -3 7 7 13 6 18 -1 3 -5 1 -10 -5 -10 -6 0 -8 -5 -5 -10 4 -6
12 -5 21 4 17 18 18 27 2 23 -6 -1 -13 7 -15 18 -2 15 -1 16 5 4 4 -9 18 -15
34 -15 25 2 26 0 12 -16 -20 -21 -9 -45 12 -27 7 6 11 15 8 20 -3 5 0 9 6 9 6
0 8 5 4 13 -6 9 -5 9 8 0 8 -7 19 -9 23 -5 5 4 5 1 1 -6 -4 -7 -13 -9 -19 -6
-7 4 -9 4 -5 -1 4 -4 2 -15 -4 -24 -9 -11 -6 -10 9 2 12 10 27 19 35 21 7 1
18 5 24 9 7 4 18 0 25 -9 12 -14 14 -14 26 2 9 13 16 14 26 6 8 -7 17 -9 20
-5 12 11 57 12 57 1 0 -7 4 -7 13 -1 17 13 103 9 100 -5 -2 -6 4 -9 12 -6 9 4
21 1 28 -5 10 -8 14 -7 14 4 0 8 -4 12 -9 9 -4 -3 -5 3 -1 12 4 10 8 13 10 7
3 -7 11 -9 19 -6 7 3 12 9 9 13 -3 5 3 7 12 5 10 -1 24 2 31 8 7 5 15 7 19 3
3 -3 1 -6 -5 -6 -20 0 -13 -16 8 -17 11 -1 19 1 19 5 -3 21 3 30 19 27 9 -1
23 3 31 9 11 8 13 8 8 -1 -4 -6 -3 -14 3 -18 5 -3 10 -1 10 4 0 6 7 11 15 11
9 0 12 6 9 18 -4 12 -3 13 3 4 6 -7 16 -12 24 -10 8 2 13 -3 11 -10 -1 -8 2
-11 8 -7 6 4 9 14 6 22 -3 8 -1 11 4 8 6 -3 10 -1 10 5 0 7 6 10 13 7 6 -2 21
3 31 12 11 9 16 10 12 4 -5 -9 1 -13 19 -13 15 0 24 4 20 10 -4 6 -11 7 -17 4
-7 -4 -8 -2 -4 4 5 9 13 9 27 2 15 -9 19 -7 19 5 0 9 5 13 10 10 6 -4 7 -11 4
-17 -4 -7 -2 -8 4 -4 6 4 8 14 5 23 -4 11 -3 14 5 9 7 -4 12 -2 12 4 0 6 8 10
18 8 9 -2 16 2 15 9 -2 7 4 10 13 6 8 -3 13 -13 12 -22z m-2465 -52 c8 -11 23
-22 33 -24 11 -1 18 -8 16 -15 -2 -8 3 -10 13 -6 9 3 14 2 12 -2 -5 -7 12 -26
26 -30 4 -1 7 -5 6 -8 -2 -15 26 -22 41 -11 8 6 4 -1 -9 -15 -21 -24 -50 -30
-36 -8 3 4 -14 26 -36 47 -23 21 -50 46 -61 56 -10 9 -21 17 -25 16 -4 0 -9 4
-11 10 -6 19 16 12 31 -10z m1304 -31 c-3 -8 -6 -5 -6 6 -1 11 2 17 5 13 3 -3
4 -12 1 -19z m172 -39 c1 8 4 12 7 8 10 -10 -6 -26 -21 -21 -8 3 -11 12 -8 22
6 13 8 13 14 -4 5 -11 8 -13 8 -5z m471 -9 c0 -5 -4 -10 -10 -10 -5 0 -10 5
-10 10 0 6 5 10 10 10 6 0 10 -4 10 -10z m-2503 -15 c0 -8 -4 -12 -9 -9 -5 3
-6 10 -3 15 9 13 12 11 12 -6z m756 -30 c4 3 5 2 2 -2 -9 -11 -55 -11 -55 0 0
5 7 6 16 3 12 -5 15 -2 10 11 -6 17 -5 17 7 1 8 -10 17 -16 20 -13z m1367 21
c0 -3 -4 -8 -10 -11 -5 -3 -10 -1 -10 4 0 6 5 11 10 11 6 0 10 -2 10 -4z
m-1660 -420 c0 -11 -19 -15 -25 -6 -3 5 1 10 9 10 9 0 16 -2 16 -4z m760 -284
c0 -5 -7 -9 -15 -9 -8 0 -15 4 -15 9 0 4 7 8 15 8 8 0 15 -4 15 -8z m70 -22
c0 -13 -19 -22 -30 -15 -14 9 0 34 16 28 8 -3 14 -9 14 -13z m-46 -48 c3 -5
-1 -9 -9 -9 -8 0 -15 4 -15 9 0 4 4 8 9 8 6 0 12 -4 15 -8z m1124 -343 c3 -11
1 -11 -7 1 -10 14 -16 7 -12 -13 1 -5 -3 -6 -9 -2 -6 3 -7 11 -4 17 4 6 1 9
-7 6 -8 -3 -13 -15 -11 -29 2 -19 1 -21 -7 -9 -10 14 -12 13 -15 -9 -2 -20
-15 -22 -39 -6 -14 9 -28 23 -31 31 -4 12 -1 11 18 -2 18 -11 26 -12 32 -3 4
7 3 9 -4 5 -6 -3 -14 -1 -18 6 -4 7 -4 10 1 6 4 -4 15 -2 23 5 11 8 14 8 9 0
-4 -6 -3 -14 3 -18 5 -3 10 0 10 9 0 27 61 32 68 5z m-148 -28 c0 -4 -6 -8
-14 -8 -8 0 -12 6 -9 14 5 13 23 9 23 -6z m-960 -39 c0 -5 -7 -9 -15 -9 -8 0
-12 4 -9 9 3 4 9 8 15 8 5 0 9 -4 9 -8z m137 -29 c0 -9 -4 -10 -12 -3 -7 5
-14 7 -17 4 -3 -3 -8 -1 -11 3 -3 5 5 9 17 9 12 0 23 -6 23 -13z m346 -3 c3
-11 1 -18 -4 -14 -5 3 -9 12 -9 20 0 20 7 17 13 -6z m704 -315 c0 -6 -3 -9 -8
-7 -6 1 -19 -2 -29 -8 -14 -7 -20 -7 -20 0 0 5 7 10 16 10 8 0 13 4 10 8 -3 5
3 8 12 7 9 0 18 -5 19 -10z m-99 -42 c-6 -7 -15 -10 -21 -6 -8 5 -7 8 1 11 7
2 12 11 12 20 0 14 2 15 10 2 5 -9 5 -19 -2 -27z"/>
<path d="M1307 3313 c-10 -9 -9 -23 1 -23 5 0 9 7 9 15 0 17 -1 18 -10 8z"/>
<path d="M1726 3052 c-3 -6 1 -15 8 -21 8 -7 17 -8 20 -3 3 6 -1 15 -8 21 -8
7 -17 8 -20 3z"/>
<path d="M1736 3001 c-3 -5 1 -11 9 -15 15 -6 29 7 18 18 -9 9 -21 8 -27 -3z"/>
<path d="M1790 2906 c0 -2 7 -7 16 -10 8 -3 12 -2 9 4 -6 10 -25 14 -25 6z"/>
<path d="M1815 2840 c3 -5 8 -10 11 -10 2 0 4 5 4 10 0 6 -5 10 -11 10 -5 0
-7 -4 -4 -10z"/>
<path d="M1884 2745 c2 -36 13 -55 29 -55 7 1 6 6 -4 13 -9 7 -15 19 -14 28 2
9 -1 22 -5 30 -6 8 -8 3 -6 -16z"/>
<path d="M1920 2680 c-9 -6 -10 -10 -3 -10 6 0 15 5 18 10 8 12 4 12 -15 0z"/>
<path d="M1647 2697 c-3 -7 3 -13 14 -13 13 0 15 3 7 13 -6 7 -12 13 -13 13
-2 0 -5 -6 -8 -13z"/>
<path d="M1670 2590 c0 -5 5 -10 10 -10 6 0 10 5 10 10 0 6 -4 10 -10 10 -5 0
-10 -4 -10 -10z"/>
<path d="M1685 2540 c3 -5 11 -10 16 -10 6 0 7 5 4 10 -3 6 -11 10 -16 10 -6
0 -7 -4 -4 -10z"/>
<path d="M1975 2620 c-3 -5 4 -12 16 -15 17 -6 19 -9 8 -16 -9 -6 -10 -9 -2
-9 21 0 22 16 3 33 -11 9 -22 12 -25 7z"/>
<path d="M2027 2563 c-7 -16 -2 -38 11 -39 6 -1 17 -2 22 -3 6 0 9 -6 8 -12
-2 -6 4 -14 12 -16 13 -4 13 -3 0 6 -8 6 -10 11 -5 11 6 0 2 7 -8 14 -10 8
-18 17 -18 20 2 19 0 26 -8 26 -6 0 -12 -3 -14 -7z m18 -12 c3 -5 2 -12 -3
-15 -5 -3 -9 1 -9 9 0 17 3 19 12 6z"/>
<path d="M2100 2481 c0 -7 -5 -9 -12 -5 -7 5 -8 3 -3 -5 5 -9 10 -10 18 -2 6
6 8 14 4 18 -4 3 -7 1 -7 -6z"/>
<path d="M1803 2403 c4 -3 -1 -12 -11 -20 -15 -13 -15 -13 6 -3 19 9 23 30 5
30 -4 0 -3 -3 0 -7z"/>
<path d="M2181 2394 c0 -11 3 -14 6 -6 3 7 2 16 -1 19 -3 4 -6 -2 -5 -13z"/>
<path d="M2147 2359 c7 -7 15 -10 18 -7 3 3 -2 9 -12 12 -14 6 -15 5 -6 -5z"/>
<path d="M2186 2358 c3 -5 10 -6 15 -3 13 9 11 12 -6 12 -8 0 -12 -4 -9 -9z"/>
<path d="M2046 2412 c-3 -5 1 -9 9 -9 8 0 12 4 9 9 -3 4 -7 8 -9 8 -2 0 -6 -4
-9 -8z"/>
<path d="M1862 2309 c-8 -12 -9 -18 -3 -14 6 3 11 -1 11 -9 0 -9 4 -16 8 -16
5 0 9 7 9 15 0 8 -4 15 -8 15 -5 0 -6 7 -3 15 9 22 1 18 -14 -6z"/>
<path d="M1910 2260 c0 -5 5 -10 10 -10 6 0 10 -5 10 -11 0 -5 -4 -7 -10 -4
-5 3 -10 1 -10 -5 0 -7 6 -10 14 -7 22 9 27 -5 8 -20 -15 -13 -15 -13 6 -3
l23 11 -21 30 c-22 31 -30 36 -30 19z"/>
<path d="M1871 2243 c11 -19 15 -20 22 -7 5 9 6 18 3 21 -3 4 -6 1 -6 -7 0
-10 -3 -10 -17 1 -15 13 -15 12 -2 -8z"/>
<path d="M2059 2096 c11 -15 18 -33 15 -38 -7 -11 13 -28 31 -28 6 1 1 7 -9
15 -18 14 -15 20 9 15 5 -1 7 1 3 5 -3 4 -9 6 -12 6 -4 -1 -18 11 -32 26 l-26
28 21 -29z"/>
<path d="M2020 2096 c0 -2 7 -7 16 -10 8 -3 12 -2 9 4 -6 10 -25 14 -25 6z"/>
<path d="M2045 2060 c3 -5 8 -10 11 -10 2 0 4 5 4 10 0 6 -5 10 -11 10 -5 0
-7 -4 -4 -10z"/>
<path d="M2185 1970 c-3 -6 1 -7 9 -4 18 7 21 14 7 14 -6 0 -13 -4 -16 -10z"/>
<path d="M3764 1958 l-19 -23 23 19 c21 18 27 26 19 26 -2 0 -12 -10 -23 -22z"/>
<path d="M2270 1939 c0 -5 5 -7 10 -4 6 3 10 8 10 11 0 2 -4 4 -10 4 -5 0 -10
-5 -10 -11z"/>
<path d="M2390 1895 c8 -11 15 -21 16 -23 1 -2 5 5 8 15 4 9 4 14 0 10 -4 -4
-14 -1 -23 6 -14 11 -15 10 -1 -8z"/>
<path d="M3545 1860 c-4 -6 -11 -7 -17 -4 -7 4 -8 2 -4 -5 6 -8 12 -9 20 -2 9
7 17 7 26 -2 12 -10 12 -9 1 6 -16 20 -18 20 -26 7z"/>
<path d="M3359 1809 c-12 -7 -11 -9 1 -9 13 0 13 -1 0 -10 -9 -6 -10 -10 -3
-10 6 0 14 4 18 10 3 5 13 6 22 3 10 -4 14 -2 11 7 -5 16 -30 21 -49 9z"/>
<path d="M2565 1800 c3 -5 8 -10 11 -10 2 0 4 5 4 10 0 6 -5 10 -11 10 -5 0
-7 -4 -4 -10z"/>
<path d="M3275 1791 c-3 -6 0 -11 7 -11 9 0 9 -3 -2 -10 -12 -7 -10 -9 7 -7
18 1 20 4 10 17 -6 8 -12 16 -13 18 -1 2 -5 -1 -9 -7z"/>
<path d="M2916 1772 c-8 -14 12 -26 44 -27 18 -1 26 5 26 17 0 15 -2 15 -16 3
-14 -13 -18 -13 -32 1 -10 10 -18 12 -22 6z"/>
<path d="M3014 1768 c-3 -4 -4 -8 -2 -9 2 0 12 -2 23 -4 11 -2 30 -6 42 -8 17
-5 21 -2 16 11 -6 15 -3 14 15 -2 20 -17 22 -17 28 -2 4 9 4 20 0 23 -3 4 -6
-1 -6 -11 0 -9 -5 -14 -10 -11 -6 4 -8 10 -5 15 3 4 -2 7 -11 6 -8 -1 -19 -8
-24 -15 -6 -11 -8 -11 -12 0 -5 14 -46 20 -54 7z"/>
<path d="M3162 1771 c-11 -7 -11 -9 0 -14 9 -3 15 1 15 9 0 8 -1 14 -1 14 -1
0 -7 -4 -14 -9z"/>
<path d="M3346 4875 c-9 -14 -13 -25 -8 -25 5 0 14 11 20 25 6 14 10 25 8 25
-2 0 -11 -11 -20 -25z"/>
<path d="M3375 4881 c-3 -5 -2 -12 3 -15 5 -3 9 1 9 9 0 17 -3 19 -12 6z"/>
<path d="M2833 4835 c0 -8 4 -12 9 -9 4 3 8 9 8 15 0 5 -4 9 -8 9 -5 0 -9 -7
-9 -15z"/>
<path d="M2815 4780 c-3 -5 -1 -10 4 -10 6 0 11 5 11 10 0 6 -2 10 -4 10 -3 0
-8 -4 -11 -10z"/>
<path d="M3276 4781 c-3 -5 1 -11 9 -14 9 -4 12 -1 8 9 -6 16 -10 17 -17 5z"/>
<path d="M3260 4741 c-13 -25 -13 -31 2 -31 6 0 8 3 5 6 -3 4 -2 15 4 25 5 11
7 19 5 19 -3 0 -10 -9 -16 -19z"/>
<path d="M1655 4721 c-3 -5 0 -13 6 -17 7 -4 9 -3 5 4 -3 5 0 13 6 15 9 4 10
6 1 6 -6 1 -14 -3 -18 -8z"/>
<path d="M3225 4690 c-3 -6 1 -7 9 -4 18 7 21 14 7 14 -6 0 -13 -4 -16 -10z"/>
<path d="M1655 4639 c-4 -6 -5 -12 -2 -15 2 -3 7 2 10 11 7 17 1 20 -8 4z"/>
<path d="M3199 4628 c-5 -18 -6 -38 -1 -34 7 8 12 36 6 36 -2 0 -4 -1 -5 -2z"/>
<path d="M2735 4580 c-3 -5 -1 -10 4 -10 6 0 11 5 11 10 0 6 -2 10 -4 10 -3 0
-8 -4 -11 -10z"/>
<path d="M3167 4576 c-4 -10 -1 -13 8 -9 8 3 12 9 9 14 -7 12 -11 11 -17 -5z"/>
<path d="M3160 4535 c-19 -22 -8 -25 13 -3 9 10 13 18 8 18 -5 0 -14 -7 -21
-15z"/>
<path d="M2736 4513 c-6 -14 -5 -15 5 -6 7 7 10 15 7 18 -3 3 -9 -2 -12 -12z"/>
<path d="M3113 4458 c-20 -26 -22 -47 -5 -59 14 -11 15 -11 6 0 -12 13 -7 54
5 46 4 -2 8 2 8 10 0 18 -2 18 -14 3z"/>
<path d="M2707 4359 c7 -7 15 -10 18 -7 3 3 -2 9 -12 12 -14 6 -15 5 -6 -5z"/>
<path d="M2683 4315 c0 -8 3 -13 5 -10 3 3 12 -1 21 -7 10 -8 9 -4 -3 10 -23
26 -23 26 -23 7z"/>
<path d="M1583 4283 c0 -9 4 -10 14 -2 7 6 13 12 13 14 0 1 -6 2 -13 2 -8 0
-14 -6 -14 -14z"/>
<path d="M2683 4265 c0 -8 4 -12 9 -9 5 3 6 10 3 15 -9 13 -12 11 -12 -6z"/>
<path d="M2125 4220 c-3 -5 -1 -10 4 -10 6 0 11 5 11 10 0 6 -2 10 -4 10 -3 0
-8 -4 -11 -10z"/>
<path d="M2260 3860 c-9 -6 -10 -10 -3 -10 6 0 15 5 18 10 8 12 4 12 -15 0z"/>
<path d="M2966 3798 c3 -5 10 -6 15 -3 13 9 11 12 -6 12 -8 0 -12 -4 -9 -9z"/>
<path d="M2220 3786 c0 -2 9 -6 20 -9 11 -3 18 -1 14 4 -5 9 -34 13 -34 5z"/>
<path d="M1256 3614 c-5 -14 -4 -15 9 -4 17 14 19 20 6 20 -5 0 -12 -7 -15
-16z"/>
<path d="M1105 3600 c-3 -6 1 -7 9 -4 18 7 21 14 7 14 -6 0 -13 -4 -16 -10z"/>
<path d="M1262 3591 c-11 -7 -11 -9 0 -14 9 -3 15 1 15 9 0 8 -1 14 -1 14 -1
0 -7 -4 -14 -9z"/>
<path d="M1720 3580 c0 -5 5 -10 11 -10 5 0 7 5 4 10 -3 6 -8 10 -11 10 -2 0
-4 -4 -4 -10z"/>
<path d="M1267 3499 c7 -7 15 -10 18 -7 3 3 -2 9 -12 12 -14 6 -15 5 -6 -5z"/>
<path d="M1285 3440 c3 -5 8 -10 11 -10 2 0 4 5 4 10 0 6 -5 10 -11 10 -5 0
-7 -4 -4 -10z"/>
<path d="M1952 3395 c15 -16 20 -17 30 -6 11 11 10 13 0 7 -7 -4 -21 -2 -30 5
-15 12 -15 11 0 -6z"/>
<path d="M2990 3326 c0 -2 7 -7 16 -10 8 -3 12 -2 9 4 -6 10 -25 14 -25 6z"/>
<path d="M1990 3310 c-11 -7 -11 -10 -2 -10 8 0 10 -5 6 -12 -4 -7 -3 -9 1 -5
7 6 17 37 12 37 -1 0 -9 -5 -17 -10z"/>
<path d="M600 3279 c0 -5 5 -7 10 -4 6 3 10 8 10 11 0 2 -4 4 -10 4 -5 0 -10
-5 -10 -11z"/>
<path d="M886 3278 c3 -5 10 -6 15 -3 13 9 11 12 -6 12 -8 0 -12 -4 -9 -9z"/>
<path d="M901 3231 c-8 -5 -9 -11 -3 -15 5 -3 12 1 16 9 6 17 6 18 -13 6z"/>
<path d="M1685 3210 c-4 -6 1 -7 11 -3 15 6 15 4 -1 -23 l-17 -29 20 25 c20
24 20 40 2 40 -5 0 -12 -4 -15 -10z"/>
<path d="M486 3158 c3 -5 10 -6 15 -3 13 9 11 12 -6 12 -8 0 -12 -4 -9 -9z"/>
<path d="M4215 3121 c-3 -5 -2 -12 3 -15 5 -3 9 1 9 9 0 17 -3 19 -12 6z"/>
<path d="M4360 3106 c0 -2 7 -9 15 -16 9 -7 15 -8 15 -2 0 5 -7 12 -15 16 -8
3 -15 4 -15 2z"/>
<path d="M2030 3086 c0 -2 7 -7 16 -10 8 -3 12 -2 9 4 -6 10 -25 14 -25 6z"/>
<path d="M2070 3072 c0 -7 5 -12 11 -12 5 0 8 -4 4 -9 -3 -5 -1 -12 4 -15 19
-12 20 12 1 29 -12 10 -20 13 -20 7z"/>
<path d="M3040 3020 c-9 -6 -10 -10 -3 -10 6 0 15 5 18 10 8 12 4 12 -15 0z"/>
<path d="M4250 3019 c0 -5 5 -7 10 -4 6 3 10 8 10 11 0 2 -4 4 -10 4 -5 0 -10
-5 -10 -11z"/>
<path d="M4420 3026 c0 -2 8 -10 18 -17 15 -13 16 -12 3 4 -13 16 -21 21 -21
13z"/>
<path d="M1010 2900 c0 -5 5 -10 11 -10 5 0 7 5 4 10 -3 6 -8 10 -11 10 -2 0
-4 -4 -4 -10z"/>
<path d="M529 2883 c-13 -16 -12 -17 4 -4 9 7 17 15 17 17 0 8 -8 3 -21 -13z"/>
<path d="M555 2840 c-3 -6 1 -7 9 -4 18 7 21 14 7 14 -6 0 -13 -4 -16 -10z"/>
<path d="M1031 2807 c-8 -10 -7 -14 2 -14 8 0 14 6 14 14 0 7 -1 13 -2 13 -2
0 -8 -6 -14 -13z"/>
<path d="M595 2680 c3 -5 8 -10 11 -10 2 0 4 5 4 10 0 6 -5 10 -11 10 -5 0 -7
-4 -4 -10z"/>
<path d="M623 2665 c0 -8 4 -12 9 -9 5 3 6 10 3 15 -9 13 -12 11 -12 -6z"/>
<path d="M656 2541 c-3 -5 2 -15 12 -22 16 -13 16 -13 2 5 -14 18 -13 19 3 13
11 -4 16 -3 12 3 -8 12 -22 13 -29 1z"/>
<path d="M3915 2430 c3 -5 8 -10 11 -10 2 0 4 5 4 10 0 6 -5 10 -11 10 -5 0
-7 -4 -4 -10z"/>
<path d="M749 2363 c-13 -16 -12 -17 4 -4 9 7 17 15 17 17 0 8 -8 3 -21 -13z"/>
<path d="M4646 2178 c3 -5 10 -6 15 -3 13 9 11 12 -6 12 -8 0 -12 -4 -9 -9z"/>
<path d="M911 2146 c-10 -11 -9 -14 1 -12 14 2 23 15 15 22 -2 2 -10 -2 -16
-10z"/>
<path d="M936 2122 c-3 -4 4 -9 15 -9 23 -2 25 3 4 10 -8 4 -16 3 -19 -1z"/>
<path d="M1010 2021 c0 -6 4 -13 10 -16 6 -3 7 1 4 9 -7 18 -14 21 -14 7z"/>
<path d="M573 1924 c0 -7 5 -10 10 -7 6 4 8 0 5 -8 -4 -9 1 -15 12 -15 14 0
15 4 6 18 -14 23 -33 30 -33 12z"/>
<path d="M4633 1915 c0 -8 4 -12 9 -9 5 3 6 10 3 15 -9 13 -12 11 -12 -6z"/>
<path d="M1246 1822 c-3 -5 1 -9 9 -9 8 0 12 4 9 9 -3 4 -7 8 -9 8 -2 0 -6 -4
-9 -8z"/>
<path d="M666 1812 c2 -3 -1 -11 -7 -18 -7 -8 -6 -14 2 -20 7 -4 9 -3 5 4 -3
5 0 12 6 15 9 3 10 7 2 15 -6 5 -9 7 -8 4z"/>
<path d="M660 1746 c0 -2 8 -10 18 -17 15 -13 16 -12 3 4 -13 16 -21 21 -21
13z"/>
<path d="M708 1733 c7 -3 16 -2 19 1 4 3 -2 6 -13 5 -11 0 -14 -3 -6 -6z"/>
<path d="M4565 1701 c-3 -5 0 -13 6 -17 7 -4 9 -3 5 4 -3 5 0 13 6 15 9 4 10
6 1 6 -6 1 -14 -3 -18 -8z"/>
<path d="M715 1691 c-3 -5 0 -13 6 -17 7 -4 9 -3 5 4 -3 5 0 13 6 15 9 4 10 6
1 6 -6 1 -14 -3 -18 -8z"/>
<path d="M750 1680 c0 -5 5 -10 11 -10 5 0 7 5 4 10 -3 6 -8 10 -11 10 -2 0
-4 -4 -4 -10z"/>
<path d="M4566 1658 c3 -5 10 -6 15 -3 13 9 11 12 -6 12 -8 0 -12 -4 -9 -9z"/>
<path d="M800 1613 c0 -6 8 -17 18 -24 16 -13 16 -13 2 6 -8 11 -16 22 -17 24
-2 2 -3 0 -3 -6z"/>
<path d="M904 1526 c2 -17 36 -51 36 -36 0 6 -7 13 -15 16 -8 4 -13 10 -10 14
3 5 1 11 -4 14 -5 4 -8 0 -7 -8z"/>
<path d="M4531 1524 c0 -11 3 -14 6 -6 3 7 2 16 -1 19 -3 4 -6 -2 -5 -13z"/>
<path d="M875 1520 c3 -5 8 -10 11 -10 2 0 4 5 4 10 0 6 -5 10 -11 10 -5 0 -7
-4 -4 -10z"/>
<path d="M910 1481 c0 -6 4 -13 10 -16 6 -3 7 1 4 9 -7 18 -14 21 -14 7z"/>
<path d="M1007 1407 c-3 -8 1 -14 8 -14 7 0 11 6 8 14 -3 7 -6 13 -8 13 -2 0
-5 -6 -8 -13z"/>
<path d="M1075 1369 c0 -24 2 -27 11 -14 14 19 25 19 18 0 -4 -8 -4 -15 -1
-15 17 0 12 31 -7 43 -21 14 -22 13 -21 -14z"/>
<path d="M4440 1360 c-18 -25 -19 -30 -6 -30 9 0 15 3 15 8 -1 4 -1 14 0 22 1
13 2 13 11 0 7 -12 9 -10 7 8 0 12 -2 22 -3 22 -2 0 -12 -13 -24 -30z"/>
<path d="M1186 1304 c-9 -8 -16 -21 -16 -27 0 -7 5 -4 11 6 6 9 14 15 19 12 5
-3 11 -1 14 4 11 17 -12 22 -28 5z"/>
<path d="M1236 1271 c-18 -20 -18 -20 4 -16 29 6 36 13 24 25 -7 7 -16 4 -28
-9z"/>
<path d="M4411 1274 c0 -11 3 -14 6 -6 3 7 2 16 -1 19 -3 4 -6 -2 -5 -13z"/>
<path d="M4386 1252 c-3 -5 1 -9 9 -9 8 0 12 4 9 9 -3 4 -7 8 -9 8 -2 0 -6 -4
-9 -8z"/>
<path d="M1419 1192 c9 -7 10 -11 2 -15 -7 -4 -8 -5 0 -3 15 2 13 20 -3 24
-10 3 -10 2 1 -6z"/>
<path d="M1450 1187 c0 -8 7 -14 15 -14 11 0 12 4 4 14 -6 7 -13 13 -15 13 -2
0 -4 -6 -4 -13z"/>
<path d="M1537 1144 c3 -8 10 -13 15 -12 16 6 14 21 -4 24 -11 1 -15 -3 -11
-12z"/>
<path d="M1583 1133 c-18 -7 -16 -20 2 -20 8 0 12 4 9 8 -2 4 2 10 8 12 7 3 9
5 3 5 -5 0 -16 -2 -22 -5z"/>
<path d="M1838 1073 c6 -2 9 -10 6 -15 -4 -7 -2 -8 5 -4 13 9 5 26 -12 25 -9
0 -8 -2 1 -6z"/>
<path d="M1799 1048 c14 -19 32 -15 30 5 0 8 -2 8 -6 -1 -4 -10 -8 -10 -21 0
-15 12 -16 11 -3 -4z"/>
<path d="M1860 1039 c0 -5 5 -7 10 -4 6 3 10 8 10 11 0 2 -4 4 -10 4 -5 0 -10
-5 -10 -11z"/>
<path d="M2014 1018 l-19 -23 23 19 c12 11 22 21 22 23 0 8 -8 2 -26 -19z"/>
<path d="M4222 990 c-7 -11 -8 -20 -3 -20 9 0 24 30 18 36 -1 2 -8 -6 -15 -16z"/>
<path d="M1130 920 c0 -5 5 -10 11 -10 5 0 7 5 4 10 -3 6 -8 10 -11 10 -2 0
-4 -4 -4 -10z"/>
<path d="M1286 803 c-6 -14 -5 -15 5 -6 7 7 10 15 7 18 -3 3 -9 -2 -12 -12z"/>
<path d="M4050 785 c-11 -13 -10 -14 4 -9 9 3 16 10 16 15 0 13 -6 11 -20 -6z"/>
<path d="M1455 720 c-3 -5 -1 -10 4 -10 6 0 11 5 11 10 0 6 -2 10 -4 10 -3 0
-8 -4 -11 -10z"/>
<path d="M1496 702 c-3 -4 4 -9 15 -9 23 -2 25 3 4 10 -8 4 -16 3 -19 -1z"/>
<path d="M1540 678 c0 -8 2 -9 37 -13 12 -1 20 1 17 6 -2 4 -12 5 -21 2 -10
-4 -14 -2 -10 4 3 5 0 10 -8 10 -8 0 -15 -4 -15 -9z"/>
<path d="M3916 662 c-2 -4 -1 -14 4 -22 7 -11 9 -9 7 8 -1 24 -3 26 -11 14z"/>
<path d="M1653 645 c-3 -9 -3 -18 -1 -21 3 -3 8 4 11 16 6 23 -1 27 -10 5z"/>
<path d="M1773 604 c-3 -8 -3 -18 1 -21 3 -4 6 1 6 11 0 9 5 14 10 11 6 -4 8
-10 6 -14 -3 -4 1 -8 8 -8 18 0 10 24 -10 31 -8 3 -17 -1 -21 -10z"/>
<path d="M2755 600 c-3 -5 -1 -10 4 -10 6 0 11 5 11 10 0 6 -2 10 -4 10 -3 0
-8 -4 -11 -10z"/>
<path d="M3855 601 c-3 -5 -2 -12 3 -15 5 -3 9 1 9 9 0 17 -3 19 -12 6z"/>
<path d="M2786 592 c-2 -4 -1 -14 5 -22 6 -11 9 -12 9 -2 0 7 4 10 10 7 6 -3
7 1 4 9 -7 17 -20 21 -28 8z"/>
<path d="M2916 567 c3 -10 9 -15 12 -12 3 3 0 11 -7 18 -10 9 -11 8 -5 -6z"/>
<path d="M1850 560 c0 -4 7 -7 15 -6 23 3 26 12 5 13 -11 1 -20 -2 -20 -7z"/>
<path d="M2317 553 c-11 -10 -8 -20 7 -26 8 -3 13 0 12 8 -3 19 -11 27 -19 18z"/>
<path d="M2476 547 c3 -10 9 -15 12 -12 3 3 0 11 -7 18 -10 9 -11 8 -5 -6z"/>
<path d="M2574 535 c0 -13 4 -21 8 -19 5 3 5 10 2 16 -5 7 -1 9 9 5 23 -9 22
0 -1 12 -15 8 -18 6 -18 -14z"/>
<path d="M1900 546 c0 -2 8 -10 18 -17 15 -13 16 -12 3 4 -13 16 -21 21 -21
13z"/>
<path d="M2190 540 c0 -5 7 -10 16 -10 8 0 13 -4 10 -8 -3 -5 1 -9 9 -9 18 0
10 14 -16 27 -13 7 -19 7 -19 0z"/>
<path d="M2035 531 c-3 -5 -2 -12 3 -15 5 -3 9 1 9 9 0 17 -3 19 -12 6z"/>
<path d="M2510 530 c-9 -6 -10 -10 -3 -10 6 0 15 5 18 10 8 12 4 12 -15 0z"/>
<path d="M3750 522 c-18 -14 -19 -19 -7 -19 9 0 13 5 10 10 -3 5 0 7 8 5 8 -3
13 -11 11 -17 -1 -7 2 -10 7 -7 9 6 9 31 -1 41 -3 3 -15 -3 -28 -13z"/>
<path d="M2370 518 c0 -6 3 -8 7 -5 3 4 13 1 22 -6 14 -11 14 -10 2 6 -15 20
-31 22 -31 5z"/>
<path d="M2415 520 c3 -5 8 -10 11 -10 2 0 4 5 4 10 0 6 -5 10 -11 10 -5 0 -7
-4 -4 -10z"/>
<path d="M3566 395 c-11 -8 -16 -18 -12 -22 4 -4 12 0 17 10 6 9 15 14 21 11
7 -4 8 -2 4 4 -9 14 -7 15 -30 -3z"/>
<path d="M3527 384 c-8 -8 3 -34 15 -34 7 0 6 5 -1 13 -6 8 -8 17 -4 20 3 4 4
7 1 7 -2 0 -7 -3 -11 -6z"/>
<path d="M3470 330 c-9 -6 -10 -10 -3 -10 6 0 15 5 18 10 8 12 4 12 -15 0z"/>
<path d="M3410 321 c-8 -6 -17 -8 -20 -6 -4 2 -7 -2 -7 -9 0 -7 6 -13 13 -13
7 0 11 4 9 8 -8 13 22 18 36 6 11 -10 11 -9 0 6 -7 9 -14 17 -15 17 0 0 -8 -4
-16 -9z"/>
<path d="M3356 287 c3 -10 9 -15 12 -12 3 3 0 11 -7 18 -10 9 -11 8 -5 -6z"/>
<path d="M3317 271 c-4 -17 -3 -21 5 -13 5 5 8 16 6 23 -3 8 -7 3 -11 -10z"/>
<path d="M3275 260 c-4 -6 -15 -8 -25 -5 -10 3 -21 1 -25 -4 -4 -7 1 -8 11 -4
12 5 15 3 9 -6 -6 -10 -2 -10 16 0 13 7 28 12 32 11 5 -1 6 2 2 8 -8 13 -12
13 -20 0z"/>
<path d="M2148 253 c7 -3 16 -2 19 1 4 3 -2 6 -13 5 -11 0 -14 -3 -6 -6z"/>
<path d="M3196 233 c-6 -14 -5 -15 5 -6 7 7 10 15 7 18 -3 3 -9 -2 -12 -12z"/>
<path d="M2255 220 c-4 -6 -11 -7 -17 -4 -7 4 -8 2 -4 -4 7 -12 36 -5 36 9 0
12 -7 11 -15 -1z"/>
<path d="M3215 220 c-3 -5 -1 -10 4 -10 6 0 11 5 11 10 0 6 -2 10 -4 10 -3 0
-8 -4 -11 -10z"/>
<path d="M2290 212 c0 -7 -6 -12 -14 -12 -8 0 -17 -4 -20 -9 -4 -5 3 -7 14 -4
22 6 35 21 26 30 -3 4 -6 1 -6 -5z"/>
<path d="M2310 210 c0 -5 5 -10 11 -10 5 0 7 5 4 10 -3 6 -8 10 -11 10 -2 0
-4 -4 -4 -10z"/>
<path d="M2335 190 c-3 -5 -1 -10 4 -10 6 0 11 5 11 10 0 6 -2 10 -4 10 -3 0
-8 -4 -11 -10z"/>
<path d="M2930 185 c0 -2 10 -10 23 -16 20 -11 21 -11 8 4 -13 16 -31 23 -31
12z"/>
<path d="M2371 164 c0 -11 3 -14 6 -6 3 7 2 16 -1 19 -3 4 -6 -2 -5 -13z"/>
<path d="M2616 165 c4 -8 8 -15 10 -15 2 0 4 7 4 15 0 8 -4 15 -10 15 -5 0 -7
-7 -4 -15z"/>
<path d="M2747 163 c5 -12 7 -12 14 -1 7 10 9 10 10 -2 1 -8 1 -19 0 -23 -1
-5 3 -6 9 -2 14 8 -3 38 -23 41 -10 1 -14 -3 -10 -13z"/>
<path d="M2797 164 c2 -7 12 -15 20 -18 14 -6 14 -4 2 11 -12 15 -12 16 4 10
10 -4 16 -3 12 2 -8 14 -44 9 -38 -5z"/>
<path d="M2855 169 c-4 -6 -5 -12 -2 -15 2 -3 7 2 10 11 7 17 1 20 -8 4z"/>
<path d="M2390 166 c0 -2 7 -7 16 -10 8 -3 12 -2 9 4 -6 10 -25 14 -25 6z"/>
<path d="M2641 154 c0 -11 3 -14 6 -6 3 7 2 16 -1 19 -3 4 -6 -2 -5 -13z"/>
</g>
</svg>
